<svg xmlns="http://www.w3.org/2000/svg" xmlns:xlink="http://www.w3.org/1999/xlink" width="779" zoomAndPan="magnify" viewBox="0 0 584.25 314.250004" height="419" preserveAspectRatio="xMidYMid meet" version="1.0"><defs><g/><clipPath id="99428561d0"><path d="M 80 0 L 582.375 0 L 582.375 183 L 80 183 Z M 80 0 " clip-rule="nonzero"/></clipPath><clipPath id="e5b5300ab0"><path d="M 204.710938 119.042969 L 230.042969 119.042969 L 230.042969 144.316406 L 204.710938 144.316406 Z M 204.710938 119.042969 " clip-rule="nonzero"/></clipPath><clipPath id="87bbbb2cfb"><path d="M 175.421875 148.332031 L 200.695312 148.332031 L 200.695312 173.664062 L 175.421875 173.664062 Z M 175.421875 148.332031 " clip-rule="nonzero"/></clipPath><clipPath id="764b4b0248"><path d="M 204.710938 148.332031 L 230.042969 148.332031 L 230.042969 173.664062 L 204.710938 173.664062 Z M 204.710938 148.332031 " clip-rule="nonzero"/></clipPath><clipPath id="254180b0f4"><path d="M 175.421875 119.042969 L 201 119.042969 L 201 145 L 175.421875 145 Z M 175.421875 119.042969 " clip-rule="nonzero"/></clipPath><clipPath id="dbe447cde3"><path d="M 362.03125 119.042969 L 387.363281 119.042969 L 387.363281 144.316406 L 362.03125 144.316406 Z M 362.03125 119.042969 " clip-rule="nonzero"/></clipPath><clipPath id="6e5861b234"><path d="M 332.746094 148.332031 L 358 148.332031 L 358 173.664062 L 332.746094 173.664062 Z M 332.746094 148.332031 " clip-rule="nonzero"/></clipPath><clipPath id="14748f3eb9"><path d="M 362.03125 148.332031 L 387.363281 148.332031 L 387.363281 173.664062 L 362.03125 173.664062 Z M 362.03125 148.332031 " clip-rule="nonzero"/></clipPath><clipPath id="b4df303ea5"><path d="M 332.746094 119.042969 L 358 119.042969 L 358 145 L 332.746094 145 Z M 332.746094 119.042969 " clip-rule="nonzero"/></clipPath></defs><g clip-path="url(#99428561d0)"><path fill="#ffffff" d="M 478.792969 159.253906 C 479.90625 152.246094 483.460938 132.257812 489.039062 124.117188 C 489.039062 124.117188 490.917969 131.824219 484 160.261719 C 483.8125 161.027344 484.726562 161.570312 485.308594 161.046875 C 514.160156 134.8125 492.109375 105.40625 492.109375 105.40625 C 492.109375 105.40625 460.542969 124.25 477.289062 159.472656 C 477.625 160.175781 478.671875 160.027344 478.792969 159.253906 Z M 493.910156 170.226562 C 504.757812 164.164062 536.109375 147.421875 553.34375 146.289062 C 553.34375 146.289062 544.777344 157.214844 498.160156 178.488281 C 496.910156 179.058594 497.144531 180.902344 498.503906 181.125 C 565.820312 192.421875 582.402344 130.257812 582.402344 130.257812 C 582.402344 130.257812 522.308594 107.21875 491.984375 168.394531 C 491.378906 169.617188 492.714844 170.894531 493.910156 170.226562 Z M 185.316406 54.082031 C 202.066406 18.855469 170.5 0.015625 170.5 0.015625 C 170.5 0.015625 148.449219 29.421875 177.300781 55.648438 C 177.878906 56.171875 178.792969 55.632812 178.605469 54.871094 C 171.6875 26.429688 173.566406 18.722656 173.566406 18.722656 C 179.144531 26.859375 182.703125 46.847656 183.8125 53.859375 C 183.933594 54.628906 184.980469 54.78125 185.316406 54.082031 Z M 168.695312 64.835938 C 157.851562 58.773438 126.496094 42.027344 109.265625 40.894531 C 109.265625 40.894531 117.828125 51.816406 164.449219 73.089844 C 165.699219 73.660156 165.457031 75.503906 164.105469 75.730469 C 96.789062 87.03125 80.203125 24.859375 80.203125 24.859375 C 80.203125 24.859375 140.296875 1.828125 170.621094 63 C 171.226562 64.226562 169.886719 65.5 168.695312 64.835938 " fill-opacity="1" fill-rule="nonzero"/></g><path fill="#27963c" d="M 377.96875 162.335938 L 377.96875 150.914062 C 377.96875 149.757812 377.03125 148.824219 375.882812 148.824219 L 364.457031 148.824219 C 363.300781 148.824219 362.367188 149.757812 362.367188 150.914062 L 362.367188 162.335938 C 362.367188 163.492188 363.300781 164.425781 364.457031 164.425781 L 375.882812 164.425781 C 377.03125 164.425781 377.96875 163.492188 377.96875 162.335938 Z M 356.601562 162.335938 L 356.601562 150.914062 C 356.601562 149.757812 355.667969 148.824219 354.511719 148.824219 L 343.085938 148.824219 C 341.929688 148.824219 340.996094 149.757812 340.996094 150.914062 L 340.996094 162.335938 C 340.996094 163.492188 341.929688 164.425781 343.085938 164.425781 L 354.511719 164.425781 C 355.667969 164.425781 356.601562 163.492188 356.601562 162.335938 Z M 377.96875 141.863281 L 377.96875 130.4375 C 377.96875 129.285156 377.03125 128.347656 375.882812 128.347656 L 364.457031 128.347656 C 363.300781 128.347656 362.367188 129.285156 362.367188 130.4375 L 362.367188 141.863281 C 362.367188 143.015625 363.300781 143.953125 364.457031 143.953125 L 375.882812 143.953125 C 377.03125 143.953125 377.96875 143.015625 377.96875 141.863281 Z M 356.601562 141.863281 L 356.601562 130.4375 C 356.601562 129.285156 355.667969 128.347656 354.511719 128.347656 L 343.085938 128.347656 C 341.929688 128.347656 340.996094 129.285156 340.996094 130.4375 L 340.996094 141.863281 C 340.996094 143.015625 341.929688 143.953125 343.085938 143.953125 L 354.511719 143.953125 C 355.667969 143.953125 356.601562 143.015625 356.601562 141.863281 Z M 222.683594 162.335938 L 222.683594 150.914062 C 222.683594 149.757812 221.746094 148.824219 220.59375 148.824219 L 209.167969 148.824219 C 208.015625 148.824219 207.078125 149.757812 207.078125 150.914062 L 207.078125 162.335938 C 207.078125 163.492188 208.015625 164.425781 209.167969 164.425781 L 220.59375 164.425781 C 221.746094 164.425781 222.683594 163.492188 222.683594 162.335938 Z M 201.316406 162.335938 L 201.316406 150.914062 C 201.316406 149.757812 200.378906 148.824219 199.226562 148.824219 L 187.800781 148.824219 C 186.648438 148.824219 185.714844 149.757812 185.714844 150.914062 L 185.714844 162.335938 C 185.714844 163.492188 186.648438 164.425781 187.800781 164.425781 L 199.226562 164.425781 C 200.378906 164.425781 201.316406 163.492188 201.316406 162.335938 Z M 222.683594 141.863281 L 222.683594 130.4375 C 222.683594 129.285156 221.746094 128.347656 220.59375 128.347656 L 209.167969 128.347656 C 208.015625 128.347656 207.078125 129.285156 207.078125 130.4375 L 207.078125 141.863281 C 207.078125 143.015625 208.015625 143.953125 209.167969 143.953125 L 220.59375 143.953125 C 221.746094 143.953125 222.683594 143.015625 222.683594 141.863281 Z M 201.316406 141.863281 L 201.316406 130.4375 C 201.316406 129.285156 200.378906 128.347656 199.226562 128.347656 L 187.800781 128.347656 C 186.648438 128.347656 185.714844 129.285156 185.714844 130.4375 L 185.714844 141.863281 C 185.714844 143.015625 186.648438 143.953125 187.800781 143.953125 L 199.226562 143.953125 C 200.378906 143.953125 201.316406 143.015625 201.316406 141.863281 Z M 361.929688 57.71875 L 487.492188 180.050781 C 490.859375 183.332031 488.535156 189.050781 483.828125 189.050781 L 458.570312 189.050781 C 457.203125 189.050781 455.890625 188.515625 454.914062 187.558594 L 361.929688 96.972656 C 359.890625 94.988281 356.644531 94.988281 354.605469 96.972656 L 305.234375 145.078125 C 303.121094 147.132812 303.121094 150.53125 305.234375 152.589844 L 333.417969 180.050781 C 336.789062 183.332031 334.464844 189.050781 329.761719 189.050781 L 304.5 189.050781 C 303.132812 189.050781 301.820312 188.515625 300.839844 187.558594 L 281.230469 168.457031 L 261.085938 148.835938 L 207.859375 96.972656 C 205.820312 94.988281 202.574219 94.988281 200.539062 96.972656 L 107.550781 187.558594 C 106.574219 188.515625 105.257812 189.050781 103.890625 189.050781 L 78.636719 189.050781 C 73.929688 189.050781 71.605469 183.332031 74.976562 180.050781 L 200.539062 57.71875 C 202.574219 55.730469 205.820312 55.730469 207.859375 57.71875 L 277.574219 125.640625 C 279.609375 127.621094 282.855469 127.621094 284.890625 125.640625 L 354.605469 57.71875 C 356.644531 55.730469 359.890625 55.730469 361.929688 57.71875 " fill-opacity="1" fill-rule="nonzero"/><path fill="#3aaa35" d="M 212.109375 120.226562 C 208.722656 120.226562 205.976562 122.972656 205.976562 126.359375 L 205.976562 143.109375 L 222.726562 143.109375 C 226.113281 143.109375 228.859375 140.363281 228.859375 136.976562 C 228.859375 133.589844 226.113281 130.84375 222.726562 130.84375 L 218.242188 130.84375 L 218.242188 126.359375 C 218.242188 122.972656 215.496094 120.226562 212.109375 120.226562 " fill-opacity="1" fill-rule="nonzero"/><g clip-path="url(#e5b5300ab0)"><path stroke-linecap="butt" transform="matrix(0.0148665, 0, 0, -0.0148665, 175.422078, 173.665743)" fill="none" stroke-linejoin="round" d="M 2467.777604 3594.596045 C 2239.969363 3594.596045 2055.252877 3409.879559 2055.252877 3182.071317 L 2055.252877 2055.379578 L 3181.944616 2055.379578 C 3409.752857 2055.379578 3594.469344 2240.096064 3594.469344 2467.904305 C 3594.469344 2695.712546 3409.752857 2880.429033 3181.944616 2880.429033 L 2880.302331 2880.429033 L 2880.302331 3182.071317 C 2880.302331 3409.879559 2695.585845 3594.596045 2467.777604 3594.596045 Z M 2467.777604 3594.596045 " stroke="#3aaa35" stroke-width="159.479004" stroke-opacity="1" stroke-miterlimit="10"/></g><path fill="#3aaa35" d="M 193.355469 172.480469 C 196.742188 172.480469 199.488281 169.734375 199.488281 166.347656 L 199.488281 149.597656 L 182.738281 149.597656 C 179.351562 149.597656 176.605469 152.34375 176.605469 155.730469 C 176.605469 159.117188 179.351562 161.863281 182.738281 161.863281 L 187.222656 161.863281 L 187.222656 166.347656 C 187.222656 169.734375 189.96875 172.480469 193.355469 172.480469 " fill-opacity="1" fill-rule="nonzero"/><g clip-path="url(#87bbbb2cfb)"><path stroke-linecap="butt" transform="matrix(0.0148665, 0, 0, -0.0148665, 175.422078, 173.665743)" fill="none" stroke-linejoin="round" d="M 1206.292753 79.727714 C 1434.100994 79.727714 1618.81748 264.4442 1618.81748 492.252442 L 1618.81748 1618.944181 L 492.12574 1618.944181 C 264.317499 1618.944181 79.601013 1434.227695 79.601013 1206.419454 C 79.601013 978.611213 264.317499 793.894726 492.12574 793.894726 L 793.768025 793.894726 L 793.768025 492.252442 C 793.768025 264.4442 978.484511 79.727714 1206.292753 79.727714 Z M 1206.292753 79.727714 " stroke="#3aaa35" stroke-width="159.479004" stroke-opacity="1" stroke-miterlimit="10"/></g><path fill="#3aaa35" d="M 228.859375 155.730469 C 228.859375 152.34375 226.113281 149.597656 222.726562 149.597656 L 205.976562 149.597656 L 205.976562 166.347656 C 205.976562 169.734375 208.722656 172.480469 212.109375 172.480469 C 215.496094 172.480469 218.242188 169.734375 218.242188 166.347656 L 218.242188 161.863281 L 222.726562 161.863281 C 226.113281 161.863281 228.859375 159.117188 228.859375 155.730469 " fill-opacity="1" fill-rule="nonzero"/><g clip-path="url(#764b4b0248)"><path stroke-linecap="butt" transform="matrix(0.0148665, 0, 0, -0.0148665, 175.422078, 173.665743)" fill="none" stroke-linejoin="round" d="M 3594.469344 1206.419454 C 3594.469344 1434.227695 3409.752857 1618.944181 3181.944616 1618.944181 L 2055.252877 1618.944181 L 2055.252877 492.252442 C 2055.252877 264.4442 2239.969363 79.727714 2467.777604 79.727714 C 2695.585845 79.727714 2880.302331 264.4442 2880.302331 492.252442 L 2880.302331 793.894726 L 3181.944616 793.894726 C 3409.752857 793.894726 3594.469344 978.611213 3594.469344 1206.419454 Z M 3594.469344 1206.419454 " stroke="#3aaa35" stroke-width="159.479004" stroke-opacity="1" stroke-miterlimit="10"/></g><path fill="#3aaa35" d="M 176.605469 136.976562 C 176.605469 140.363281 179.351562 143.109375 182.738281 143.109375 L 199.488281 143.109375 L 199.488281 126.359375 C 199.488281 122.972656 196.742188 120.226562 193.355469 120.226562 C 189.96875 120.226562 187.222656 122.972656 187.222656 126.359375 L 187.222656 130.84375 L 182.738281 130.84375 C 179.351562 130.84375 176.605469 133.589844 176.605469 136.976562 " fill-opacity="1" fill-rule="nonzero"/><g clip-path="url(#254180b0f4)"><path stroke-linecap="butt" transform="matrix(0.0148665, 0, 0, -0.0148665, 175.422078, 173.665743)" fill="none" stroke-linejoin="round" d="M 79.601008 2467.904146 C 79.601008 2240.09592 264.317482 2055.379445 492.125709 2055.379445 L 1618.817376 2055.379445 L 1618.817376 3182.071112 C 1618.817376 3409.879339 1434.100902 3594.595813 1206.292675 3594.595813 C 978.484448 3594.595813 793.767974 3409.879339 793.767974 3182.071112 L 793.767974 2880.428847 L 492.125709 2880.428847 C 264.317482 2880.428847 79.601008 2695.712373 79.601008 2467.904146 Z M 79.601008 2467.904146 " stroke="#3aaa35" stroke-width="159.479004" stroke-opacity="1" stroke-miterlimit="10"/></g><g fill="#545454" fill-opacity="1"><g transform="translate(129.743394, 259.487148)"><g><path d="M 31.78125 1 C 27.820312 1 24.171875 0.304688 20.828125 -1.078125 C 17.484375 -2.460938 14.585938 -4.398438 12.140625 -6.890625 C 9.703125 -9.390625 7.8125 -12.347656 6.46875 -15.765625 C 5.132812 -19.191406 4.46875 -22.9375 4.46875 -27 C 4.46875 -31.0625 5.132812 -34.800781 6.46875 -38.21875 C 7.8125 -41.644531 9.703125 -44.601562 12.140625 -47.09375 C 14.585938 -49.582031 17.484375 -51.519531 20.828125 -52.90625 C 24.171875 -54.300781 27.820312 -55 31.78125 -55 C 36.050781 -55 39.972656 -54.210938 43.546875 -52.640625 C 47.117188 -51.078125 50.175781 -48.84375 52.71875 -45.9375 C 55.269531 -43.03125 57.132812 -39.597656 58.3125 -35.640625 L 51.0625 -35.640625 C 49.675781 -39.546875 47.269531 -42.617188 43.84375 -44.859375 C 40.425781 -47.097656 36.484375 -48.21875 32.015625 -48.21875 C 28.003906 -48.21875 24.453125 -47.316406 21.359375 -45.515625 C 18.273438 -43.710938 15.847656 -41.21875 14.078125 -38.03125 C 12.304688 -34.84375 11.421875 -31.164062 11.421875 -27 C 11.421875 -22.832031 12.304688 -19.15625 14.078125 -15.96875 C 15.847656 -12.78125 18.273438 -10.285156 21.359375 -8.484375 C 24.453125 -6.679688 28.003906 -5.78125 32.015625 -5.78125 C 36.585938 -5.78125 40.648438 -6.960938 44.203125 -9.328125 C 47.753906 -11.691406 50.222656 -14.910156 51.609375 -18.984375 L 58.78125 -18.984375 C 57.695312 -14.960938 55.859375 -11.460938 53.265625 -8.484375 C 50.671875 -5.503906 47.535156 -3.175781 43.859375 -1.5 C 40.179688 0.164062 36.15625 1 31.78125 1 Z M 31.78125 1 "/></g></g></g><g fill="#545454" fill-opacity="1"><g transform="translate(192.677009, 259.487148)"><g><path d="M 7.875 0 L 7.875 -54 L 14.65625 -54 L 14.65625 -6.484375 L 40.890625 -6.484375 L 40.890625 0 Z M 7.875 0 "/></g></g></g><g fill="#545454" fill-opacity="1"><g transform="translate(235.943867, 259.487148)"><g><path d="M 32.40625 1 C 26.945312 1 22.109375 -0.191406 17.890625 -2.578125 C 13.679688 -4.972656 10.390625 -8.28125 8.015625 -12.5 C 5.648438 -16.71875 4.46875 -21.550781 4.46875 -27 C 4.46875 -32.5 5.648438 -37.34375 8.015625 -41.53125 C 10.390625 -45.726562 13.679688 -49.019531 17.890625 -51.40625 C 22.109375 -53.800781 26.945312 -55 32.40625 -55 C 37.90625 -55 42.75 -53.800781 46.9375 -51.40625 C 51.132812 -49.019531 54.425781 -45.726562 56.8125 -41.53125 C 59.207031 -37.34375 60.40625 -32.5 60.40625 -27 C 60.40625 -21.550781 59.207031 -16.71875 56.8125 -12.5 C 54.425781 -8.28125 51.132812 -4.972656 46.9375 -2.578125 C 42.75 -0.191406 37.90625 1 32.40625 1 Z M 11.421875 -27 C 11.421875 -22.832031 12.304688 -19.15625 14.078125 -15.96875 C 15.847656 -12.78125 18.316406 -10.285156 21.484375 -8.484375 C 24.648438 -6.679688 28.289062 -5.78125 32.40625 -5.78125 C 36.5625 -5.78125 40.207031 -6.679688 43.34375 -8.484375 C 46.488281 -10.285156 48.945312 -12.78125 50.71875 -15.96875 C 52.488281 -19.15625 53.375 -22.832031 53.375 -27 C 53.375 -31.21875 52.488281 -34.90625 50.71875 -38.0625 C 48.945312 -41.226562 46.488281 -43.710938 43.34375 -45.515625 C 40.207031 -47.316406 36.5625 -48.21875 32.40625 -48.21875 C 28.289062 -48.21875 24.648438 -47.316406 21.484375 -45.515625 C 18.316406 -43.710938 15.847656 -41.226562 14.078125 -38.0625 C 12.304688 -34.90625 11.421875 -31.21875 11.421875 -27 Z M 11.421875 -27 "/></g></g></g><g fill="#545454" fill-opacity="1"><g transform="translate(300.728472, 259.487148)"><g><path d="M 22.828125 0 L 1.3125 -54 L 8.5625 -54 L 17.515625 -31.234375 L 26 -9.796875 L 34.40625 -31.234375 L 43.4375 -54 L 50.609375 -54 L 29.15625 0 Z M 22.828125 0 "/></g></g></g><g fill="#545454" fill-opacity="1"><g transform="translate(352.63329, 259.487148)"><g><path d="M 7.875 0 L 7.875 -54 L 40.65625 -54 L 40.65625 -47.671875 L 14.65625 -47.671875 L 14.65625 -30.625 L 38.71875 -30.625 L 38.71875 -24.375 L 14.65625 -24.375 L 14.65625 -6.328125 L 41.5 -6.328125 L 41.5 0 Z M 7.875 0 "/></g></g></g><g fill="#545454" fill-opacity="1"><g transform="translate(399.139392, 259.487148)"><g><path d="M 7.875 0 L 7.875 -54 L 28.46875 -54 C 32.21875 -54 35.476562 -53.289062 38.25 -51.875 C 41.03125 -50.457031 43.191406 -48.460938 44.734375 -45.890625 C 46.285156 -43.328125 47.0625 -40.242188 47.0625 -36.640625 C 47.0625 -32.265625 45.925781 -28.648438 43.65625 -25.796875 C 41.394531 -22.941406 38.285156 -21.03125 34.328125 -20.0625 L 47.90625 0 L 39.734375 0 L 26.53125 -19.359375 L 14.65625 -19.359375 L 14.65625 0 Z M 14.65625 -25.84375 L 27.6875 -25.84375 C 31.65625 -25.84375 34.71875 -26.78125 36.875 -28.65625 C 39.03125 -30.53125 40.109375 -33.191406 40.109375 -36.640625 C 40.109375 -40.085938 39.03125 -42.757812 36.875 -44.65625 C 34.71875 -46.5625 31.65625 -47.515625 27.6875 -47.515625 L 14.65625 -47.515625 Z M 14.65625 -25.84375 "/></g></g></g><g fill="#545454" fill-opacity="1"><g transform="translate(122.569342, 300.719593)"><g><path d="M 0.375 0 L 6.84375 -15.703125 L 8.6875 -15.703125 L 15.140625 0 L 13.0625 0 L 11.578125 -3.5625 L 3.921875 -3.5625 L 2.484375 0 Z M 4.6875 -5.40625 L 10.84375 -5.40625 L 7.765625 -12.953125 Z M 4.6875 -5.40625 "/></g></g></g><g fill="#545454" fill-opacity="1"><g transform="translate(151.675973, 300.719593)"><g><path d="M 8.171875 0.265625 C 6.265625 0.265625 4.773438 -0.320312 3.703125 -1.5 C 2.640625 -2.6875 2.109375 -4.316406 2.109375 -6.390625 L 2.109375 -15.703125 L 4.0625 -15.703125 L 4.0625 -6.53125 C 4.0625 -4.925781 4.410156 -3.710938 5.109375 -2.890625 C 5.816406 -2.066406 6.835938 -1.65625 8.171875 -1.65625 C 10.898438 -1.65625 12.265625 -3.28125 12.265625 -6.53125 L 12.265625 -15.703125 L 14.25 -15.703125 L 14.25 -6.390625 C 14.25 -4.316406 13.707031 -2.6875 12.625 -1.5 C 11.550781 -0.320312 10.066406 0.265625 8.171875 0.265625 Z M 8.171875 0.265625 "/></g></g></g><g fill="#545454" fill-opacity="1"><g transform="translate(181.61281, 300.719593)"><g><path d="M 9.25 0.296875 C 8.09375 0.296875 7.023438 0.09375 6.046875 -0.3125 C 5.078125 -0.71875 4.238281 -1.28125 3.53125 -2 C 2.820312 -2.726562 2.269531 -3.585938 1.875 -4.578125 C 1.488281 -5.578125 1.296875 -6.671875 1.296875 -7.859375 C 1.296875 -9.035156 1.488281 -10.117188 1.875 -11.109375 C 2.269531 -12.109375 2.820312 -12.96875 3.53125 -13.6875 C 4.238281 -14.414062 5.078125 -14.984375 6.046875 -15.390625 C 7.023438 -15.796875 8.09375 -16 9.25 -16 C 10.488281 -16 11.625 -15.769531 12.65625 -15.3125 C 13.695312 -14.851562 14.585938 -14.203125 15.328125 -13.359375 C 16.078125 -12.515625 16.625 -11.515625 16.96875 -10.359375 L 14.859375 -10.359375 C 14.453125 -11.503906 13.75 -12.398438 12.75 -13.046875 C 11.757812 -13.703125 10.613281 -14.03125 9.3125 -14.03125 C 8.144531 -14.03125 7.113281 -13.765625 6.21875 -13.234375 C 5.320312 -12.710938 4.613281 -11.988281 4.09375 -11.0625 C 3.582031 -10.132812 3.328125 -9.066406 3.328125 -7.859375 C 3.328125 -6.640625 3.582031 -5.566406 4.09375 -4.640625 C 4.613281 -3.710938 5.320312 -2.988281 6.21875 -2.46875 C 7.113281 -1.945312 8.144531 -1.6875 9.3125 -1.6875 C 10.644531 -1.6875 11.828125 -2.03125 12.859375 -2.71875 C 13.890625 -3.40625 14.609375 -4.335938 15.015625 -5.515625 L 17.09375 -5.515625 C 16.78125 -4.347656 16.242188 -3.332031 15.484375 -2.46875 C 14.734375 -1.601562 13.820312 -0.925781 12.75 -0.4375 C 11.6875 0.0507812 10.519531 0.296875 9.25 0.296875 Z M 9.25 0.296875 "/></g></g></g><g fill="#545454" fill-opacity="1"><g transform="translate(213.501736, 300.719593)"><g><path d="M 6.078125 0 L 6.078125 -13.828125 L 0.765625 -13.828125 L 0.765625 -15.703125 L 13.34375 -15.703125 L 13.34375 -13.828125 L 8.0625 -13.828125 L 8.0625 0 Z M 6.078125 0 "/></g></g></g><g fill="#545454" fill-opacity="1"><g transform="translate(241.217226, 300.719593)"><g><path d="M 2.28125 0 L 2.28125 -15.703125 L 4.265625 -15.703125 L 4.265625 0 Z M 2.28125 0 "/></g></g></g><g fill="#545454" fill-opacity="1"><g transform="translate(261.348722, 300.719593)"><g><path d="M 9.421875 0.296875 C 7.835938 0.296875 6.429688 -0.0507812 5.203125 -0.75 C 3.972656 -1.445312 3.015625 -2.40625 2.328125 -3.625 C 1.640625 -4.851562 1.296875 -6.265625 1.296875 -7.859375 C 1.296875 -9.453125 1.640625 -10.859375 2.328125 -12.078125 C 3.015625 -13.296875 3.972656 -14.253906 5.203125 -14.953125 C 6.429688 -15.648438 7.835938 -16 9.421875 -16 C 11.023438 -16 12.4375 -15.648438 13.65625 -14.953125 C 14.875 -14.253906 15.828125 -13.296875 16.515625 -12.078125 C 17.210938 -10.859375 17.5625 -9.453125 17.5625 -7.859375 C 17.5625 -6.265625 17.210938 -4.851562 16.515625 -3.625 C 15.828125 -2.40625 14.875 -1.445312 13.65625 -0.75 C 12.4375 -0.0507812 11.023438 0.296875 9.421875 0.296875 Z M 3.328125 -7.859375 C 3.328125 -6.640625 3.582031 -5.566406 4.09375 -4.640625 C 4.613281 -3.710938 5.332031 -2.988281 6.25 -2.46875 C 7.164062 -1.945312 8.222656 -1.6875 9.421875 -1.6875 C 10.628906 -1.6875 11.691406 -1.945312 12.609375 -2.46875 C 13.523438 -2.988281 14.238281 -3.710938 14.75 -4.640625 C 15.269531 -5.566406 15.53125 -6.640625 15.53125 -7.859375 C 15.53125 -9.078125 15.269531 -10.144531 14.75 -11.0625 C 14.238281 -11.988281 13.523438 -12.710938 12.609375 -13.234375 C 11.691406 -13.765625 10.628906 -14.03125 9.421875 -14.03125 C 8.222656 -14.03125 7.164062 -13.765625 6.25 -13.234375 C 5.332031 -12.710938 4.613281 -11.988281 4.09375 -11.0625 C 3.582031 -10.144531 3.328125 -9.078125 3.328125 -7.859375 Z M 3.328125 -7.859375 "/></g></g></g><g fill="#545454" fill-opacity="1"><g transform="translate(293.776162, 300.719593)"><g><path d="M 2.28125 0 L 2.28125 -15.703125 L 4.15625 -15.703125 L 12.828125 -3.40625 L 12.828125 -15.703125 L 14.765625 -15.703125 L 14.765625 0 L 12.921875 0 L 4.234375 -12.296875 L 4.234375 0 Z M 2.28125 0 "/></g></g></g><g fill="#545454" fill-opacity="1"><g transform="translate(324.408576, 300.719593)"><g><path d="M 12.59375 0 L 12.59375 -7.0625 L 4.265625 -7.0625 L 4.265625 0 L 2.28125 0 L 2.28125 -15.703125 L 4.265625 -15.703125 L 4.265625 -8.953125 L 12.59375 -8.953125 L 12.59375 -15.703125 L 14.5625 -15.703125 L 14.5625 0 Z M 12.59375 0 "/></g></g></g><g fill="#545454" fill-opacity="1"><g transform="translate(354.839059, 300.719593)"><g><path d="M 9.421875 0.296875 C 7.835938 0.296875 6.429688 -0.0507812 5.203125 -0.75 C 3.972656 -1.445312 3.015625 -2.40625 2.328125 -3.625 C 1.640625 -4.851562 1.296875 -6.265625 1.296875 -7.859375 C 1.296875 -9.453125 1.640625 -10.859375 2.328125 -12.078125 C 3.015625 -13.296875 3.972656 -14.253906 5.203125 -14.953125 C 6.429688 -15.648438 7.835938 -16 9.421875 -16 C 11.023438 -16 12.4375 -15.648438 13.65625 -14.953125 C 14.875 -14.253906 15.828125 -13.296875 16.515625 -12.078125 C 17.210938 -10.859375 17.5625 -9.453125 17.5625 -7.859375 C 17.5625 -6.265625 17.210938 -4.851562 16.515625 -3.625 C 15.828125 -2.40625 14.875 -1.445312 13.65625 -0.75 C 12.4375 -0.0507812 11.023438 0.296875 9.421875 0.296875 Z M 3.328125 -7.859375 C 3.328125 -6.640625 3.582031 -5.566406 4.09375 -4.640625 C 4.613281 -3.710938 5.332031 -2.988281 6.25 -2.46875 C 7.164062 -1.945312 8.222656 -1.6875 9.421875 -1.6875 C 10.628906 -1.6875 11.691406 -1.945312 12.609375 -2.46875 C 13.523438 -2.988281 14.238281 -3.710938 14.75 -4.640625 C 15.269531 -5.566406 15.53125 -6.640625 15.53125 -7.859375 C 15.53125 -9.078125 15.269531 -10.144531 14.75 -11.0625 C 14.238281 -11.988281 13.523438 -12.710938 12.609375 -13.234375 C 11.691406 -13.765625 10.628906 -14.03125 9.421875 -14.03125 C 8.222656 -14.03125 7.164062 -13.765625 6.25 -13.234375 C 5.332031 -12.710938 4.613281 -11.988281 4.09375 -11.0625 C 3.582031 -10.144531 3.328125 -9.078125 3.328125 -7.859375 Z M 3.328125 -7.859375 "/></g></g></g><g fill="#545454" fill-opacity="1"><g transform="translate(387.2665, 300.719593)"><g><path d="M 8.171875 0.265625 C 6.265625 0.265625 4.773438 -0.320312 3.703125 -1.5 C 2.640625 -2.6875 2.109375 -4.316406 2.109375 -6.390625 L 2.109375 -15.703125 L 4.0625 -15.703125 L 4.0625 -6.53125 C 4.0625 -4.925781 4.410156 -3.710938 5.109375 -2.890625 C 5.816406 -2.066406 6.835938 -1.65625 8.171875 -1.65625 C 10.898438 -1.65625 12.265625 -3.28125 12.265625 -6.53125 L 12.265625 -15.703125 L 14.25 -15.703125 L 14.25 -6.390625 C 14.25 -4.316406 13.707031 -2.6875 12.625 -1.5 C 11.550781 -0.320312 10.066406 0.265625 8.171875 0.265625 Z M 8.171875 0.265625 "/></g></g></g><g fill="#545454" fill-opacity="1"><g transform="translate(417.203324, 300.719593)"><g><path d="M 7.515625 0.296875 C 6.253906 0.296875 5.164062 0.0820312 4.25 -0.34375 C 3.332031 -0.769531 2.625 -1.367188 2.125 -2.140625 C 1.625 -2.910156 1.363281 -3.804688 1.34375 -4.828125 L 3.328125 -4.828125 C 3.347656 -3.828125 3.742188 -3.035156 4.515625 -2.453125 C 5.285156 -1.878906 6.285156 -1.59375 7.515625 -1.59375 C 8.617188 -1.59375 9.492188 -1.804688 10.140625 -2.234375 C 10.796875 -2.671875 11.125 -3.28125 11.125 -4.0625 C 11.125 -4.789062 10.8125 -5.375 10.1875 -5.8125 C 9.5625 -6.257812 8.535156 -6.648438 7.109375 -6.984375 C 5.179688 -7.441406 3.769531 -8.03125 2.875 -8.75 C 1.976562 -9.476562 1.53125 -10.453125 1.53125 -11.671875 C 1.53125 -13.003906 2.035156 -14.054688 3.046875 -14.828125 C 4.054688 -15.609375 5.421875 -16 7.140625 -16 C 8.898438 -16 10.289062 -15.554688 11.3125 -14.671875 C 12.34375 -13.785156 12.863281 -12.582031 12.875 -11.0625 L 10.921875 -11.0625 C 10.910156 -12 10.5625 -12.738281 9.875 -13.28125 C 9.195312 -13.832031 8.285156 -14.109375 7.140625 -14.109375 C 6.015625 -14.109375 5.132812 -13.890625 4.5 -13.453125 C 3.863281 -13.015625 3.546875 -12.421875 3.546875 -11.671875 C 3.546875 -11.023438 3.835938 -10.476562 4.421875 -10.03125 C 5.015625 -9.59375 6.078125 -9.1875 7.609375 -8.8125 C 9.609375 -8.320312 11.035156 -7.707031 11.890625 -6.96875 C 12.742188 -6.226562 13.171875 -5.28125 13.171875 -4.125 C 13.171875 -2.769531 12.65625 -1.691406 11.625 -0.890625 C 10.601562 -0.0976562 9.234375 0.296875 7.515625 0.296875 Z M 7.515625 0.296875 "/></g></g></g><g fill="#545454" fill-opacity="1"><g transform="translate(445.300266, 300.719593)"><g><path d="M 2.28125 0 L 2.28125 -15.703125 L 11.828125 -15.703125 L 11.828125 -13.859375 L 4.265625 -13.859375 L 4.265625 -8.90625 L 11.265625 -8.90625 L 11.265625 -7.09375 L 4.265625 -7.09375 L 4.265625 -1.84375 L 12.078125 -1.84375 L 12.078125 0 Z M 2.28125 0 "/></g></g></g><path fill="#3aaa35" d="M 369.433594 120.226562 C 366.046875 120.226562 363.300781 122.972656 363.300781 126.359375 L 363.300781 143.109375 L 380.050781 143.109375 C 383.4375 143.109375 386.183594 140.363281 386.183594 136.976562 C 386.183594 133.589844 383.4375 130.84375 380.050781 130.84375 L 375.566406 130.84375 L 375.566406 126.359375 C 375.566406 122.972656 372.820312 120.226562 369.433594 120.226562 " fill-opacity="1" fill-rule="nonzero"/><g clip-path="url(#dbe447cde3)"><path stroke-linecap="butt" transform="matrix(0.0148665, 0, 0, -0.0148665, 332.744575, 173.665743)" fill="none" stroke-linejoin="round" d="M 2467.893372 3594.596045 C 2240.085131 3594.596045 2055.368644 3409.879559 2055.368644 3182.071317 L 2055.368644 2055.379578 L 3182.060384 2055.379578 C 3409.868625 2055.379578 3594.585112 2240.096064 3594.585112 2467.904305 C 3594.585112 2695.712546 3409.868625 2880.429033 3182.060384 2880.429033 L 2880.418099 2880.429033 L 2880.418099 3182.071317 C 2880.418099 3409.879559 2695.701613 3594.596045 2467.893372 3594.596045 Z M 2467.893372 3594.596045 " stroke="#3aaa35" stroke-width="159.479004" stroke-opacity="1" stroke-miterlimit="10"/></g><path fill="#3aaa35" d="M 350.679688 172.480469 C 354.066406 172.480469 356.8125 169.734375 356.8125 166.347656 L 356.8125 149.597656 L 340.0625 149.597656 C 336.675781 149.597656 333.929688 152.34375 333.929688 155.730469 C 333.929688 159.117188 336.675781 161.863281 340.0625 161.863281 L 344.546875 161.863281 L 344.546875 166.347656 C 344.546875 169.734375 347.292969 172.480469 350.679688 172.480469 " fill-opacity="1" fill-rule="nonzero"/><g clip-path="url(#6e5861b234)"><path stroke-linecap="butt" transform="matrix(0.0148665, 0, 0, -0.0148665, 332.744575, 173.665743)" fill="none" stroke-linejoin="round" d="M 1206.408521 79.727714 C 1434.216762 79.727714 1618.933248 264.4442 1618.933248 492.252442 L 1618.933248 1618.944181 L 492.241508 1618.944181 C 264.433267 1618.944181 79.716781 1434.227695 79.716781 1206.419454 C 79.716781 978.611213 264.433267 793.894726 492.241508 793.894726 L 793.883793 793.894726 L 793.883793 492.252442 C 793.883793 264.4442 978.600279 79.727714 1206.408521 79.727714 Z M 1206.408521 79.727714 " stroke="#3aaa35" stroke-width="159.479004" stroke-opacity="1" stroke-miterlimit="10"/></g><path fill="#3aaa35" d="M 386.183594 155.730469 C 386.183594 152.34375 383.4375 149.597656 380.050781 149.597656 L 363.300781 149.597656 L 363.300781 166.347656 C 363.300781 169.734375 366.046875 172.480469 369.433594 172.480469 C 372.820312 172.480469 375.566406 169.734375 375.566406 166.347656 L 375.566406 161.863281 L 380.050781 161.863281 C 383.4375 161.863281 386.183594 159.117188 386.183594 155.730469 " fill-opacity="1" fill-rule="nonzero"/><g clip-path="url(#14748f3eb9)"><path stroke-linecap="butt" transform="matrix(0.0148665, 0, 0, -0.0148665, 332.744575, 173.665743)" fill="none" stroke-linejoin="round" d="M 3594.585112 1206.419454 C 3594.585112 1434.227695 3409.868625 1618.944181 3182.060384 1618.944181 L 2055.368644 1618.944181 L 2055.368644 492.252442 C 2055.368644 264.4442 2240.085131 79.727714 2467.893372 79.727714 C 2695.701613 79.727714 2880.418099 264.4442 2880.418099 492.252442 L 2880.418099 793.894726 L 3182.060384 793.894726 C 3409.868625 793.894726 3594.585112 978.611213 3594.585112 1206.419454 Z M 3594.585112 1206.419454 " stroke="#3aaa35" stroke-width="159.479004" stroke-opacity="1" stroke-miterlimit="10"/></g><path fill="#3aaa35" d="M 333.929688 136.976562 C 333.929688 140.363281 336.675781 143.109375 340.0625 143.109375 L 356.8125 143.109375 L 356.8125 126.359375 C 356.8125 122.972656 354.066406 120.226562 350.679688 120.226562 C 347.292969 120.226562 344.546875 122.972656 344.546875 126.359375 L 344.546875 130.84375 L 340.0625 130.84375 C 336.675781 130.84375 333.929688 133.589844 333.929688 136.976562 " fill-opacity="1" fill-rule="nonzero"/><g clip-path="url(#b4df303ea5)"><path stroke-linecap="butt" transform="matrix(0.0148665, 0, 0, -0.0148665, 332.744575, 173.665743)" fill="none" stroke-linejoin="round" d="M 79.716776 2467.904146 C 79.716776 2240.09592 264.43325 2055.379445 492.241477 2055.379445 L 1618.933144 2055.379445 L 1618.933144 3182.071112 C 1618.933144 3409.879339 1434.216669 3594.595813 1206.408443 3594.595813 C 978.600216 3594.595813 793.883742 3409.879339 793.883742 3182.071112 L 793.883742 2880.428847 L 492.241477 2880.428847 C 264.43325 2880.428847 79.716776 2695.712373 79.716776 2467.904146 Z M 79.716776 2467.904146 " stroke="#3aaa35" stroke-width="159.479004" stroke-opacity="1" stroke-miterlimit="10"/></g></svg>