<svg xmlns="http://www.w3.org/2000/svg" xmlns:xlink="http://www.w3.org/1999/xlink" width="432" zoomAndPan="magnify" viewBox="0 0 324 151.500001" height="202" preserveAspectRatio="xMidYMid meet" version="1.0"><defs><clipPath id="9ff375c409"><path d="M 106.441406 45.5 L 120.65625 45.5 L 120.65625 59.679688 L 106.441406 59.679688 Z M 106.441406 45.5 " clip-rule="nonzero"/></clipPath><clipPath id="b5d66ca6b2"><path d="M 90.003906 62 L 104 62 L 104 76 L 90.003906 76 Z M 90.003906 62 " clip-rule="nonzero"/></clipPath><clipPath id="83f1174976"><path d="M 90.003906 61.933594 L 104.1875 61.933594 L 104.1875 76.148438 L 90.003906 76.148438 Z M 90.003906 61.933594 " clip-rule="nonzero"/></clipPath><clipPath id="fb9cd1a224"><path d="M 106.441406 61.933594 L 120.65625 61.933594 L 120.65625 76.148438 L 106.441406 76.148438 Z M 106.441406 61.933594 " clip-rule="nonzero"/></clipPath><clipPath id="8033f77b5e"><path d="M 90.003906 46 L 104 46 L 104 60 L 90.003906 60 Z M 90.003906 46 " clip-rule="nonzero"/></clipPath><clipPath id="5354b8cd7f"><path d="M 90.003906 45.5 L 105 45.5 L 105 60 L 90.003906 60 Z M 90.003906 45.5 " clip-rule="nonzero"/></clipPath><clipPath id="c88dd5dea7"><path d="M 223.273438 45.5 L 237.488281 45.5 L 237.488281 59.679688 L 223.273438 59.679688 Z M 223.273438 45.5 " clip-rule="nonzero"/></clipPath><clipPath id="a68aefece8"><path d="M 206.839844 61.933594 L 221.023438 61.933594 L 221.023438 76.148438 L 206.839844 76.148438 Z M 206.839844 61.933594 " clip-rule="nonzero"/></clipPath><clipPath id="897bf60fd0"><path d="M 223.273438 61.933594 L 237.488281 61.933594 L 237.488281 76.148438 L 223.273438 76.148438 Z M 223.273438 61.933594 " clip-rule="nonzero"/></clipPath><clipPath id="ff500d4401"><path d="M 206.839844 45.5 L 222 45.5 L 222 60 L 206.839844 60 Z M 206.839844 45.5 " clip-rule="nonzero"/></clipPath></defs><path fill="#27963c" d="M 220.960938 16.550781 L 313.429688 76.042969 C 315.910156 77.636719 314.195312 80.417969 310.730469 80.417969 L 292.128906 80.417969 C 291.121094 80.417969 290.15625 80.160156 289.4375 79.695312 L 220.960938 35.640625 C 219.457031 34.675781 217.066406 34.675781 215.566406 35.640625 L 179.207031 59.035156 C 177.648438 60.035156 177.648438 61.6875 179.207031 62.6875 L 199.960938 76.042969 C 202.445312 77.636719 200.734375 80.417969 197.269531 80.417969 L 178.664062 80.417969 C 177.660156 80.417969 176.691406 80.160156 175.96875 79.695312 L 161.527344 70.402344 L 146.695312 60.863281 L 107.496094 35.640625 C 105.992188 34.675781 103.601562 34.675781 102.105469 35.640625 L 33.625 79.695312 C 32.90625 80.160156 31.9375 80.417969 30.929688 80.417969 L 12.332031 80.417969 C 8.863281 80.417969 7.152344 77.636719 9.636719 76.042969 L 102.105469 16.550781 C 103.601562 15.582031 105.992188 15.582031 107.496094 16.550781 L 158.835938 49.582031 C 160.335938 50.542969 162.726562 50.542969 164.226562 49.582031 L 215.566406 16.550781 C 217.066406 15.582031 219.457031 15.582031 220.960938 16.550781 " fill-opacity="1" fill-rule="nonzero"/><path fill="#545454" d="M 73.371094 115.160156 C 70.457031 115.160156 67.769531 114.824219 65.304688 114.148438 C 62.84375 113.476562 60.710938 112.535156 58.910156 111.324219 C 57.113281 110.109375 55.722656 108.667969 54.730469 107.007812 C 53.746094 105.339844 53.257812 103.519531 53.257812 101.542969 C 53.257812 99.566406 53.746094 97.75 54.730469 96.085938 C 55.722656 94.421875 57.113281 92.984375 58.910156 91.773438 C 60.710938 90.5625 62.84375 89.621094 65.304688 88.945312 C 67.769531 88.265625 70.457031 87.925781 73.371094 87.925781 C 76.515625 87.925781 79.40625 88.308594 82.039062 89.074219 C 84.667969 89.832031 86.917969 90.921875 88.792969 92.332031 C 90.671875 93.746094 92.042969 95.417969 92.910156 97.339844 L 87.574219 97.339844 C 86.550781 95.441406 84.777344 93.949219 82.257812 92.859375 C 79.738281 91.769531 76.835938 91.222656 73.546875 91.222656 C 70.589844 91.222656 67.976562 91.664062 65.695312 92.539062 C 63.425781 93.417969 61.636719 94.628906 60.335938 96.179688 C 59.03125 97.730469 58.378906 99.519531 58.378906 101.542969 C 58.378906 103.570312 59.03125 105.359375 60.335938 106.910156 C 61.636719 108.457031 63.425781 109.671875 65.695312 110.546875 C 67.976562 111.425781 70.589844 111.863281 73.546875 111.863281 C 76.910156 111.863281 79.902344 111.289062 82.519531 110.136719 C 85.136719 108.988281 86.953125 107.421875 87.972656 105.441406 L 93.257812 105.441406 C 92.457031 107.398438 91.105469 109.101562 89.195312 110.546875 C 87.285156 111.996094 84.972656 113.128906 82.265625 113.945312 C 79.558594 114.753906 76.59375 115.160156 73.371094 115.160156 Z M 73.371094 115.160156 " fill-opacity="1" fill-rule="nonzero"/><path fill="#545454" d="M 102.113281 114.675781 L 102.113281 88.414062 L 107.109375 88.414062 L 107.109375 111.519531 L 126.425781 111.519531 L 126.425781 114.675781 Z M 102.113281 114.675781 " fill-opacity="1" fill-rule="nonzero"/><path fill="#545454" d="M 152.042969 115.160156 C 148.019531 115.160156 144.460938 114.582031 141.351562 113.421875 C 138.25 112.257812 135.828125 110.648438 134.082031 108.59375 C 132.335938 106.542969 131.46875 104.195312 131.46875 101.542969 C 131.46875 98.867188 132.335938 96.511719 134.082031 94.476562 C 135.828125 92.4375 138.25 90.835938 141.351562 89.675781 C 144.460938 88.511719 148.019531 87.925781 152.042969 87.925781 C 156.09375 87.925781 159.660156 88.511719 162.746094 89.675781 C 165.832031 90.835938 168.257812 92.4375 170.015625 94.476562 C 171.78125 96.511719 172.664062 98.867188 172.664062 101.542969 C 172.664062 104.195312 171.78125 106.542969 170.015625 108.59375 C 168.257812 110.648438 165.832031 112.257812 162.746094 113.421875 C 159.660156 114.582031 156.09375 115.160156 152.042969 115.160156 Z M 136.589844 101.542969 C 136.589844 103.570312 137.238281 105.359375 138.546875 106.910156 C 139.847656 108.457031 141.667969 109.671875 144 110.546875 C 146.328125 111.425781 149.011719 111.863281 152.042969 111.863281 C 155.105469 111.863281 157.789062 111.425781 160.097656 110.546875 C 162.414062 109.671875 164.222656 108.457031 165.527344 106.910156 C 166.832031 105.359375 167.484375 103.570312 167.484375 101.542969 C 167.484375 99.492188 166.832031 97.699219 165.527344 96.164062 C 164.222656 94.625 162.414062 93.417969 160.097656 92.539062 C 157.789062 91.664062 155.105469 91.222656 152.042969 91.222656 C 149.011719 91.222656 146.328125 91.664062 144 92.539062 C 141.667969 93.417969 139.847656 94.625 138.546875 96.164062 C 137.238281 97.699219 136.589844 99.492188 136.589844 101.542969 Z M 136.589844 101.542969 " fill-opacity="1" fill-rule="nonzero"/><path fill="#545454" d="M 192.699219 114.675781 L 176.855469 88.414062 L 182.195312 88.414062 L 188.785156 99.484375 L 195.035156 109.910156 L 201.226562 99.484375 L 207.878906 88.414062 L 213.160156 88.414062 L 197.359375 114.675781 Z M 192.699219 114.675781 " fill-opacity="1" fill-rule="nonzero"/><path fill="#545454" d="M 219.910156 114.675781 L 219.910156 88.414062 L 244.054688 88.414062 L 244.054688 91.492188 L 224.90625 91.492188 L 224.90625 99.78125 L 242.625 99.78125 L 242.625 102.820312 L 224.90625 102.820312 L 224.90625 111.597656 L 244.675781 111.597656 L 244.675781 114.675781 Z M 219.910156 114.675781 " fill-opacity="1" fill-rule="nonzero"/><path fill="#545454" d="M 254.160156 114.675781 L 254.160156 88.414062 L 269.328125 88.414062 C 272.089844 88.414062 274.488281 88.757812 276.53125 89.445312 C 278.578125 90.136719 280.167969 91.105469 281.304688 92.355469 C 282.449219 93.601562 283.019531 95.101562 283.019531 96.855469 C 283.019531 98.984375 282.183594 100.742188 280.511719 102.128906 C 278.847656 103.515625 276.554688 104.445312 273.640625 104.917969 L 283.640625 114.675781 L 277.625 114.675781 L 267.898438 105.257812 L 259.15625 105.257812 L 259.15625 114.675781 Z M 259.15625 102.105469 L 268.75 102.105469 C 271.675781 102.105469 273.929688 101.648438 275.519531 100.738281 C 277.105469 99.824219 277.898438 98.53125 277.898438 96.855469 C 277.898438 95.179688 277.105469 93.878906 275.519531 92.957031 C 273.929688 92.03125 271.675781 91.566406 268.75 91.566406 L 259.15625 91.566406 Z M 259.15625 102.105469 " fill-opacity="1" fill-rule="nonzero"/><path fill="#545454" d="M 44.960938 134.726562 L 49.722656 127.089844 L 51.082031 127.089844 L 55.835938 134.726562 L 54.304688 134.726562 L 53.210938 132.996094 L 47.574219 132.996094 L 46.511719 134.726562 Z M 48.136719 132.097656 L 52.671875 132.097656 L 50.402344 128.425781 Z M 48.136719 132.097656 " fill-opacity="1" fill-rule="nonzero"/><path fill="#545454" d="M 72.136719 134.855469 C 70.734375 134.855469 69.636719 134.570312 68.847656 133.996094 C 68.0625 133.417969 67.671875 132.628906 67.671875 131.617188 L 67.671875 127.089844 L 69.109375 127.089844 L 69.109375 131.550781 C 69.109375 132.332031 69.367188 132.921875 69.882812 133.320312 C 70.402344 133.722656 71.152344 133.921875 72.136719 133.921875 C 74.144531 133.921875 75.152344 133.132812 75.152344 131.550781 L 75.152344 127.089844 L 76.613281 127.089844 L 76.613281 131.617188 C 76.613281 132.628906 76.214844 133.417969 75.417969 133.996094 C 74.625 134.570312 73.53125 134.855469 72.136719 134.855469 Z M 72.136719 134.855469 " fill-opacity="1" fill-rule="nonzero"/><path fill="#545454" d="M 94.980469 134.871094 C 94.125 134.871094 93.339844 134.773438 92.617188 134.574219 C 91.90625 134.375 91.289062 134.105469 90.765625 133.753906 C 90.242188 133.398438 89.835938 132.984375 89.546875 132.5 C 89.261719 132.015625 89.121094 131.480469 89.121094 130.90625 C 89.121094 130.332031 89.261719 129.804688 89.546875 129.324219 C 89.835938 128.835938 90.242188 128.417969 90.765625 128.070312 C 91.289062 127.714844 91.90625 127.441406 92.617188 127.242188 C 93.339844 127.042969 94.125 126.945312 94.980469 126.945312 C 95.890625 126.945312 96.726562 127.058594 97.488281 127.28125 C 98.253906 127.503906 98.90625 127.820312 99.453125 128.230469 C 100.007812 128.640625 100.410156 129.125 100.664062 129.6875 L 99.109375 129.6875 C 98.808594 129.132812 98.292969 128.695312 97.554688 128.382812 C 96.824219 128.0625 95.984375 127.902344 95.023438 127.902344 C 94.164062 127.902344 93.40625 128.03125 92.746094 128.289062 C 92.085938 128.542969 91.5625 128.898438 91.179688 129.347656 C 90.804688 129.796875 90.617188 130.316406 90.617188 130.90625 C 90.617188 131.496094 90.804688 132.019531 91.179688 132.46875 C 91.5625 132.921875 92.085938 133.273438 92.746094 133.527344 C 93.40625 133.78125 94.164062 133.90625 95.023438 133.90625 C 96.003906 133.90625 96.878906 133.738281 97.636719 133.402344 C 98.394531 133.070312 98.925781 132.617188 99.222656 132.042969 L 100.753906 132.042969 C 100.523438 132.613281 100.128906 133.105469 99.570312 133.527344 C 99.015625 133.949219 98.34375 134.277344 97.554688 134.515625 C 96.773438 134.75 95.914062 134.871094 94.980469 134.871094 Z M 94.980469 134.871094 " fill-opacity="1" fill-rule="nonzero"/><path fill="#545454" d="M 116.128906 134.726562 L 116.128906 128 L 112.214844 128 L 112.214844 127.089844 L 121.476562 127.089844 L 121.476562 128 L 117.589844 128 L 117.589844 134.726562 Z M 116.128906 134.726562 " fill-opacity="1" fill-rule="nonzero"/><path fill="#545454" d="M 133.742188 127.089844 L 135.203125 127.089844 L 135.203125 134.726562 L 133.742188 134.726562 Z M 133.742188 127.089844 " fill-opacity="1" fill-rule="nonzero"/><path fill="#545454" d="M 153.824219 134.871094 C 152.65625 134.871094 151.621094 134.703125 150.71875 134.363281 C 149.8125 134.023438 149.109375 133.554688 148.601562 132.964844 C 148.09375 132.367188 147.839844 131.679688 147.839844 130.90625 C 147.839844 130.128906 148.09375 129.445312 148.601562 128.851562 C 149.109375 128.261719 149.8125 127.792969 150.71875 127.453125 C 151.621094 127.117188 152.65625 126.945312 153.824219 126.945312 C 155.003906 126.945312 156.046875 127.117188 156.945312 127.453125 C 157.839844 127.792969 158.542969 128.261719 159.050781 128.851562 C 159.5625 129.445312 159.820312 130.128906 159.820312 130.90625 C 159.820312 131.679688 159.5625 132.367188 159.050781 132.964844 C 158.542969 133.554688 157.839844 134.023438 156.945312 134.363281 C 156.046875 134.703125 155.003906 134.871094 153.824219 134.871094 Z M 149.339844 130.90625 C 149.339844 131.496094 149.523438 132.019531 149.902344 132.46875 C 150.285156 132.921875 150.8125 133.273438 151.488281 133.527344 C 152.164062 133.78125 152.941406 133.90625 153.824219 133.90625 C 154.714844 133.90625 155.496094 133.78125 156.171875 133.527344 C 156.847656 133.273438 157.371094 132.921875 157.75 132.46875 C 158.132812 132.019531 158.324219 131.496094 158.324219 130.90625 C 158.324219 130.3125 158.132812 129.792969 157.75 129.347656 C 157.371094 128.898438 156.847656 128.542969 156.171875 128.289062 C 155.496094 128.03125 154.714844 127.902344 153.824219 127.902344 C 152.941406 127.902344 152.164062 128.03125 151.488281 128.289062 C 150.8125 128.542969 150.285156 128.898438 149.902344 129.347656 C 149.523438 129.792969 149.339844 130.3125 149.339844 130.90625 Z M 149.339844 130.90625 " fill-opacity="1" fill-rule="nonzero"/><path fill="#545454" d="M 172.449219 134.726562 L 172.449219 127.089844 L 173.828125 127.089844 L 180.214844 133.070312 L 180.214844 127.089844 L 181.640625 127.089844 L 181.640625 134.726562 L 180.285156 134.726562 L 173.886719 128.746094 L 173.886719 134.726562 Z M 172.449219 134.726562 " fill-opacity="1" fill-rule="nonzero"/><path fill="#545454" d="M 202.601562 134.726562 L 202.601562 131.292969 L 196.46875 131.292969 L 196.46875 134.726562 L 195.007812 134.726562 L 195.007812 127.089844 L 196.46875 127.089844 L 196.46875 130.371094 L 202.601562 130.371094 L 202.601562 127.089844 L 204.050781 127.089844 L 204.050781 134.726562 Z M 202.601562 134.726562 " fill-opacity="1" fill-rule="nonzero"/><path fill="#545454" d="M 222.675781 134.871094 C 221.507812 134.871094 220.472656 134.703125 219.570312 134.363281 C 218.664062 134.023438 217.957031 133.554688 217.453125 132.964844 C 216.945312 132.367188 216.691406 131.679688 216.691406 130.90625 C 216.691406 130.128906 216.945312 129.445312 217.453125 128.851562 C 217.957031 128.261719 218.664062 127.792969 219.570312 127.453125 C 220.472656 127.117188 221.507812 126.945312 222.675781 126.945312 C 223.855469 126.945312 224.894531 127.117188 225.792969 127.453125 C 226.691406 127.792969 227.394531 128.261719 227.898438 128.851562 C 228.410156 129.445312 228.671875 130.128906 228.671875 130.90625 C 228.671875 131.679688 228.410156 132.367188 227.898438 132.964844 C 227.394531 133.554688 226.691406 134.023438 225.792969 134.363281 C 224.894531 134.703125 223.855469 134.871094 222.675781 134.871094 Z M 218.1875 130.90625 C 218.1875 131.496094 218.375 132.019531 218.753906 132.46875 C 219.132812 132.921875 219.664062 133.273438 220.339844 133.527344 C 221.011719 133.78125 221.792969 133.90625 222.675781 133.90625 C 223.566406 133.90625 224.347656 133.78125 225.023438 133.527344 C 225.695312 133.273438 226.222656 132.921875 226.597656 132.46875 C 226.980469 132.019531 227.175781 131.496094 227.175781 130.90625 C 227.175781 130.3125 226.980469 129.792969 226.597656 129.347656 C 226.222656 128.898438 225.695312 128.542969 225.023438 128.289062 C 224.347656 128.03125 223.566406 127.902344 222.675781 127.902344 C 221.792969 127.902344 221.011719 128.03125 220.339844 128.289062 C 219.664062 128.542969 219.132812 128.898438 218.753906 129.347656 C 218.375 129.792969 218.1875 130.3125 218.1875 130.90625 Z M 218.1875 130.90625 " fill-opacity="1" fill-rule="nonzero"/><path fill="#545454" d="M 245.636719 134.855469 C 244.230469 134.855469 243.132812 134.570312 242.34375 133.996094 C 241.5625 133.417969 241.171875 132.628906 241.171875 131.617188 L 241.171875 127.089844 L 242.609375 127.089844 L 242.609375 131.550781 C 242.609375 132.332031 242.867188 132.921875 243.378906 133.320312 C 243.902344 133.722656 244.652344 133.921875 245.636719 133.921875 C 247.644531 133.921875 248.652344 133.132812 248.652344 131.550781 L 248.652344 127.089844 L 250.113281 127.089844 L 250.113281 131.617188 C 250.113281 132.628906 249.710938 133.417969 248.914062 133.996094 C 248.125 134.570312 247.03125 134.855469 245.636719 134.855469 Z M 245.636719 134.855469 " fill-opacity="1" fill-rule="nonzero"/><path fill="#545454" d="M 267.199219 134.871094 C 266.269531 134.871094 265.46875 134.765625 264.792969 134.558594 C 264.117188 134.351562 263.597656 134.0625 263.230469 133.683594 C 262.859375 133.3125 262.667969 132.875 262.652344 132.378906 L 264.117188 132.378906 C 264.128906 132.863281 264.421875 133.25 264.988281 133.535156 C 265.554688 133.8125 266.292969 133.953125 267.199219 133.953125 C 268.011719 133.953125 268.65625 133.847656 269.132812 133.640625 C 269.617188 133.425781 269.855469 133.132812 269.855469 132.75 C 269.855469 132.398438 269.628906 132.113281 269.167969 131.898438 C 268.707031 131.683594 267.949219 131.492188 266.898438 131.332031 C 265.480469 131.109375 264.441406 130.820312 263.78125 130.472656 C 263.121094 130.117188 262.792969 129.644531 262.792969 129.050781 C 262.792969 128.402344 263.164062 127.890625 263.910156 127.515625 C 264.652344 127.136719 265.65625 126.945312 266.921875 126.945312 C 268.21875 126.945312 269.242188 127.160156 269.996094 127.589844 C 270.753906 128.023438 271.136719 128.609375 271.144531 129.347656 L 269.707031 129.347656 C 269.699219 128.890625 269.445312 128.53125 268.9375 128.269531 C 268.4375 128 267.765625 127.863281 266.921875 127.863281 C 266.09375 127.863281 265.445312 127.972656 264.976562 128.183594 C 264.507812 128.398438 264.277344 128.683594 264.277344 129.050781 C 264.277344 129.367188 264.488281 129.632812 264.921875 129.847656 C 265.359375 130.0625 266.140625 130.257812 267.269531 130.441406 C 268.742188 130.679688 269.792969 130.976562 270.421875 131.335938 C 271.046875 131.699219 271.363281 132.160156 271.363281 132.71875 C 271.363281 133.378906 270.984375 133.902344 270.226562 134.292969 C 269.472656 134.679688 268.464844 134.871094 267.199219 134.871094 Z M 267.199219 134.871094 " fill-opacity="1" fill-rule="nonzero"/><path fill="#545454" d="M 284.035156 134.726562 L 284.035156 127.089844 L 291.066406 127.089844 L 291.066406 127.988281 L 285.496094 127.988281 L 285.496094 130.394531 L 290.652344 130.394531 L 290.652344 131.277344 L 285.496094 131.277344 L 285.496094 133.828125 L 291.25 133.828125 L 291.25 134.726562 Z M 284.035156 134.726562 " fill-opacity="1" fill-rule="nonzero"/><path fill="#3aaa35" d="M 110.59375 46.164062 C 108.691406 46.164062 107.152344 47.707031 107.152344 49.605469 L 107.152344 59.003906 L 116.550781 59.003906 C 118.449219 59.003906 119.992188 57.464844 119.992188 55.5625 C 119.992188 53.664062 118.449219 52.121094 116.550781 52.121094 L 114.035156 52.121094 L 114.035156 49.605469 C 114.035156 47.707031 112.492188 46.164062 110.59375 46.164062 " fill-opacity="1" fill-rule="nonzero"/><g clip-path="url(#9ff375c409)"><path stroke-linecap="butt" transform="matrix(0.00834209, 0, 0, -0.00834209, 90.005591, 76.150236)" fill="none" stroke-linejoin="round" d="M 2467.984875 3594.562354 C 2239.943331 3594.562354 2055.449761 3409.600526 2055.449761 3182.02724 L 2055.449761 2055.398993 L 3182.078007 2055.398993 C 3409.651294 2055.398993 3594.613121 2239.892563 3594.613121 2467.934108 C 3594.613121 2695.507394 3409.651294 2880.469222 3182.078007 2880.469222 L 2880.519989 2880.469222 L 2880.519989 3182.02724 C 2880.519989 3409.600526 2695.558162 3594.562354 2467.984875 3594.562354 Z M 2467.984875 3594.562354 " stroke="#3aaa35" stroke-width="159.479004" stroke-opacity="1" stroke-miterlimit="10"/></g><g clip-path="url(#b5d66ca6b2)"><path fill="#3aaa35" d="M 100.070312 75.484375 C 101.96875 75.484375 103.511719 73.945312 103.511719 72.042969 L 103.511719 62.644531 L 94.113281 62.644531 C 92.210938 62.644531 90.671875 64.1875 90.671875 66.085938 C 90.671875 67.988281 92.210938 69.527344 94.113281 69.527344 L 96.628906 69.527344 L 96.628906 72.042969 C 96.628906 73.945312 98.167969 75.484375 100.070312 75.484375 " fill-opacity="1" fill-rule="nonzero"/></g><g clip-path="url(#83f1174976)"><path stroke-linecap="butt" transform="matrix(0.00834209, 0, 0, -0.00834209, 90.005591, 76.150236)" fill="none" stroke-linejoin="round" d="M 1206.498385 79.819371 C 1434.071672 79.819371 1619.033499 264.312941 1619.033499 492.354485 L 1619.033499 1618.982732 L 492.405253 1618.982732 C 264.363708 1618.982732 79.870139 1434.020904 79.870139 1206.447617 C 79.870139 978.406073 264.363708 793.912503 492.405253 793.912503 L 793.963271 793.912503 L 793.963271 492.354485 C 793.963271 264.312941 978.45684 79.819371 1206.498385 79.819371 Z M 1206.498385 79.819371 " stroke="#3aaa35" stroke-width="159.479004" stroke-opacity="1" stroke-miterlimit="10"/></g><path fill="#3aaa35" d="M 119.992188 66.085938 C 119.992188 64.1875 118.449219 62.644531 116.550781 62.644531 L 107.152344 62.644531 L 107.152344 72.042969 C 107.152344 73.945312 108.691406 75.484375 110.59375 75.484375 C 112.492188 75.484375 114.035156 73.945312 114.035156 72.042969 L 114.035156 69.527344 L 116.550781 69.527344 C 118.449219 69.527344 119.992188 67.988281 119.992188 66.085938 " fill-opacity="1" fill-rule="nonzero"/><g clip-path="url(#fb9cd1a224)"><path stroke-linecap="butt" transform="matrix(0.00834209, 0, 0, -0.00834209, 90.005591, 76.150236)" fill="none" stroke-linejoin="round" d="M 3594.613121 1206.447617 C 3594.613121 1434.020904 3409.651294 1618.982732 3182.078007 1618.982732 L 2055.449761 1618.982732 L 2055.449761 492.354485 C 2055.449761 264.312941 2239.943331 79.819371 2467.984875 79.819371 C 2695.558162 79.819371 2880.519989 264.312941 2880.519989 492.354485 L 2880.519989 793.912503 L 3182.078007 793.912503 C 3409.651294 793.912503 3594.613121 978.406073 3594.613121 1206.447617 Z M 3594.613121 1206.447617 " stroke="#3aaa35" stroke-width="159.479004" stroke-opacity="1" stroke-miterlimit="10"/></g><g clip-path="url(#8033f77b5e)"><path fill="#3aaa35" d="M 90.671875 55.5625 C 90.671875 57.464844 92.210938 59.003906 94.113281 59.003906 L 103.511719 59.003906 L 103.511719 49.605469 C 103.511719 47.707031 101.96875 46.164062 100.070312 46.164062 C 98.167969 46.164062 96.628906 47.707031 96.628906 49.605469 L 96.628906 52.121094 L 94.113281 52.121094 C 92.210938 52.121094 90.671875 53.664062 90.671875 55.5625 " fill-opacity="1" fill-rule="nonzero"/></g><g clip-path="url(#5354b8cd7f)"><path stroke-linecap="butt" transform="matrix(0.00834209, 0, 0, -0.00834209, 90.005591, 76.150236)" fill="none" stroke-linejoin="round" d="M 79.870139 2467.934108 C 79.870139 2239.892563 264.363708 2055.398993 492.405253 2055.398993 L 1619.033499 2055.398993 L 1619.033499 3182.02724 C 1619.033499 3409.600526 1434.071672 3594.562354 1206.498385 3594.562354 C 978.45684 3594.562354 793.963271 3409.600526 793.963271 3182.02724 L 793.963271 2880.469222 L 492.405253 2880.469222 C 264.363708 2880.469222 79.870139 2695.507394 79.870139 2467.934108 Z M 79.870139 2467.934108 " stroke="#3aaa35" stroke-width="159.479004" stroke-opacity="1" stroke-miterlimit="10"/></g><path fill="#3aaa35" d="M 227.425781 46.164062 C 225.527344 46.164062 223.984375 47.707031 223.984375 49.605469 L 223.984375 59.003906 L 233.382812 59.003906 C 235.285156 59.003906 236.824219 57.464844 236.824219 55.5625 C 236.824219 53.664062 235.285156 52.121094 233.382812 52.121094 L 230.867188 52.121094 L 230.867188 49.605469 C 230.867188 47.707031 229.328125 46.164062 227.425781 46.164062 " fill-opacity="1" fill-rule="nonzero"/><g clip-path="url(#c88dd5dea7)"><path stroke-linecap="butt" transform="matrix(0.00834209, 0, 0, -0.00834209, 206.839964, 76.150236)" fill="none" stroke-linejoin="round" d="M 2467.704138 3594.562354 C 2240.130851 3594.562354 2055.169023 3409.600526 2055.169023 3182.02724 L 2055.169023 2055.398993 L 3181.79727 2055.398993 C 3409.838814 2055.398993 3594.332384 2239.892563 3594.332384 2467.934108 C 3594.332384 2695.507394 3409.838814 2880.469222 3181.79727 2880.469222 L 2880.239252 2880.469222 L 2880.239252 3182.02724 C 2880.239252 3409.600526 2695.745682 3594.562354 2467.704138 3594.562354 Z M 2467.704138 3594.562354 " stroke="#3aaa35" stroke-width="159.479004" stroke-opacity="1" stroke-miterlimit="10"/></g><path fill="#3aaa35" d="M 216.902344 75.484375 C 218.804688 75.484375 220.34375 73.945312 220.34375 72.042969 L 220.34375 62.644531 L 210.945312 62.644531 C 209.046875 62.644531 207.503906 64.1875 207.503906 66.085938 C 207.503906 67.988281 209.046875 69.527344 210.945312 69.527344 L 213.460938 69.527344 L 213.460938 72.042969 C 213.460938 73.945312 215.003906 75.484375 216.902344 75.484375 " fill-opacity="1" fill-rule="nonzero"/><g clip-path="url(#a68aefece8)"><path stroke-linecap="butt" transform="matrix(0.00834209, 0, 0, -0.00834209, 206.839964, 76.150236)" fill="none" stroke-linejoin="round" d="M 1206.217647 79.819371 C 1434.259192 79.819371 1618.752762 264.312941 1618.752762 492.354485 L 1618.752762 1618.982732 L 492.124515 1618.982732 C 264.551229 1618.982732 79.589401 1434.020904 79.589401 1206.447617 C 79.589401 978.406073 264.551229 793.912503 492.124515 793.912503 L 793.682533 793.912503 L 793.682533 492.354485 C 793.682533 264.312941 978.644361 79.819371 1206.217647 79.819371 Z M 1206.217647 79.819371 " stroke="#3aaa35" stroke-width="159.479004" stroke-opacity="1" stroke-miterlimit="10"/></g><path fill="#3aaa35" d="M 236.824219 66.085938 C 236.824219 64.1875 235.285156 62.644531 233.382812 62.644531 L 223.984375 62.644531 L 223.984375 72.042969 C 223.984375 73.945312 225.527344 75.484375 227.425781 75.484375 C 229.328125 75.484375 230.867188 73.945312 230.867188 72.042969 L 230.867188 69.527344 L 233.382812 69.527344 C 235.285156 69.527344 236.824219 67.988281 236.824219 66.085938 " fill-opacity="1" fill-rule="nonzero"/><g clip-path="url(#897bf60fd0)"><path stroke-linecap="butt" transform="matrix(0.00834209, 0, 0, -0.00834209, 206.839964, 76.150236)" fill="none" stroke-linejoin="round" d="M 3594.332384 1206.447617 C 3594.332384 1434.020904 3409.838814 1618.982732 3181.79727 1618.982732 L 2055.169023 1618.982732 L 2055.169023 492.354485 C 2055.169023 264.312941 2240.130851 79.819371 2467.704138 79.819371 C 2695.745682 79.819371 2880.239252 264.312941 2880.239252 492.354485 L 2880.239252 793.912503 L 3181.79727 793.912503 C 3409.838814 793.912503 3594.332384 978.406073 3594.332384 1206.447617 Z M 3594.332384 1206.447617 " stroke="#3aaa35" stroke-width="159.479004" stroke-opacity="1" stroke-miterlimit="10"/></g><path fill="#3aaa35" d="M 207.503906 55.5625 C 207.503906 57.464844 209.046875 59.003906 210.945312 59.003906 L 220.34375 59.003906 L 220.34375 49.605469 C 220.34375 47.707031 218.804688 46.164062 216.902344 46.164062 C 215.003906 46.164062 213.460938 47.707031 213.460938 49.605469 L 213.460938 52.121094 L 210.945312 52.121094 C 209.046875 52.121094 207.503906 53.664062 207.503906 55.5625 " fill-opacity="1" fill-rule="nonzero"/><g clip-path="url(#ff500d4401)"><path stroke-linecap="butt" transform="matrix(0.00834209, 0, 0, -0.00834209, 206.839964, 76.150236)" fill="none" stroke-linejoin="round" d="M 79.589401 2467.934108 C 79.589401 2239.892563 264.551229 2055.398993 492.124515 2055.398993 L 1618.752762 2055.398993 L 1618.752762 3182.02724 C 1618.752762 3409.600526 1434.259192 3594.562354 1206.217647 3594.562354 C 978.644361 3594.562354 793.682533 3409.600526 793.682533 3182.02724 L 793.682533 2880.469222 L 492.124515 2880.469222 C 264.551229 2880.469222 79.589401 2695.507394 79.589401 2467.934108 Z M 79.589401 2467.934108 " stroke="#3aaa35" stroke-width="159.479004" stroke-opacity="1" stroke-miterlimit="10"/></g></svg>