<svg xmlns="http://www.w3.org/2000/svg" xmlns:xlink="http://www.w3.org/1999/xlink" width="432" zoomAndPan="magnify" viewBox="0 0 324 215.999996" height="288" preserveAspectRatio="xMidYMid meet" version="1.0"><defs><clipPath id="ed4e1249a9"><path d="M 106 70.023438 L 123 70.023438 L 123 87 L 106 87 Z M 106 70.023438 " clip-rule="nonzero"/></clipPath><clipPath id="23bd4fa35d"><path d="M 106.109375 70.023438 L 123.503906 70.023438 L 123.503906 87.375 L 106.109375 87.375 Z M 106.109375 70.023438 " clip-rule="nonzero"/></clipPath><clipPath id="d50a7605c0"><path d="M 86.003906 91 L 103 91 L 103 107 L 86.003906 107 Z M 86.003906 91 " clip-rule="nonzero"/></clipPath><clipPath id="3bb91f650e"><path d="M 86.003906 90.128906 L 103.355469 90.128906 L 103.355469 107.523438 L 86.003906 107.523438 Z M 86.003906 90.128906 " clip-rule="nonzero"/></clipPath><clipPath id="1a541948e7"><path d="M 106.109375 90.128906 L 123.503906 90.128906 L 123.503906 107.523438 L 106.109375 107.523438 Z M 106.109375 90.128906 " clip-rule="nonzero"/></clipPath><clipPath id="5d2c575c9a"><path d="M 86.003906 70.023438 L 103 70.023438 L 103 87 L 86.003906 87 Z M 86.003906 70.023438 " clip-rule="nonzero"/></clipPath><clipPath id="c4d976fbeb"><path d="M 86.003906 70.023438 L 104 70.023438 L 104 88 L 86.003906 88 Z M 86.003906 70.023438 " clip-rule="nonzero"/></clipPath><clipPath id="fef9b6b003"><path d="M 226 70.023438 L 242.835938 70.023438 L 242.835938 87 L 226 87 Z M 226 70.023438 " clip-rule="nonzero"/></clipPath><clipPath id="5ba36497e1"><path d="M 225.441406 70.023438 L 242.835938 70.023438 L 242.835938 87.375 L 225.441406 87.375 Z M 225.441406 70.023438 " clip-rule="nonzero"/></clipPath><clipPath id="fc2d9474dc"><path d="M 205.335938 90.128906 L 222.6875 90.128906 L 222.6875 107.523438 L 205.335938 107.523438 Z M 205.335938 90.128906 " clip-rule="nonzero"/></clipPath><clipPath id="4ccf1766e6"><path d="M 226 91 L 242.835938 91 L 242.835938 107 L 226 107 Z M 226 91 " clip-rule="nonzero"/></clipPath><clipPath id="096ebc1386"><path d="M 225.441406 90.128906 L 242.835938 90.128906 L 242.835938 107.523438 L 225.441406 107.523438 Z M 225.441406 90.128906 " clip-rule="nonzero"/></clipPath><clipPath id="1a36300122"><path d="M 206 70.023438 L 222 70.023438 L 222 87 L 206 87 Z M 206 70.023438 " clip-rule="nonzero"/></clipPath><clipPath id="78a7c2c0a2"><path d="M 205.335938 70.023438 L 223 70.023438 L 223 88 L 205.335938 88 Z M 205.335938 70.023438 " clip-rule="nonzero"/></clipPath></defs><path fill="#27963c" d="M 218.472656 17.703125 L 308.628906 105.402344 C 311.046875 107.753906 309.378906 111.851562 306 111.851562 L 287.863281 111.851562 C 286.882812 111.851562 285.9375 111.46875 285.238281 110.785156 L 218.472656 45.84375 C 217.007812 44.421875 214.675781 44.421875 213.210938 45.84375 L 177.761719 80.328125 C 176.242188 81.804688 176.242188 84.238281 177.761719 85.714844 L 197.996094 105.402344 C 200.417969 107.753906 198.75 111.851562 195.371094 111.851562 L 177.234375 111.851562 C 176.25 111.851562 175.308594 111.46875 174.605469 110.785156 L 160.523438 97.089844 L 146.058594 83.023438 L 107.839844 45.84375 C 106.375 44.421875 104.046875 44.421875 102.585938 45.84375 L 35.816406 110.785156 C 35.113281 111.46875 34.167969 111.851562 33.1875 111.851562 L 15.054688 111.851562 C 11.671875 111.851562 10.003906 107.753906 12.425781 105.402344 L 102.585938 17.703125 C 104.046875 16.277344 106.375 16.277344 107.839844 17.703125 L 157.898438 66.394531 C 159.359375 67.816406 161.691406 67.816406 163.152344 66.394531 L 213.210938 17.703125 C 214.675781 16.277344 217.007812 16.277344 218.472656 17.703125 " fill-opacity="1" fill-rule="nonzero"/><path fill="#545454" d="M 74.570312 163.0625 C 71.726562 163.0625 69.105469 162.566406 66.703125 161.574219 C 64.304688 160.582031 62.222656 159.195312 60.46875 157.40625 C 58.714844 155.617188 57.359375 153.496094 56.394531 151.046875 C 55.433594 148.589844 54.957031 145.902344 54.957031 142.992188 C 54.957031 140.078125 55.433594 137.398438 56.394531 134.949219 C 57.359375 132.492188 58.714844 130.375 60.46875 128.585938 C 62.222656 126.804688 64.304688 125.414062 66.703125 124.417969 C 69.105469 123.421875 71.726562 122.917969 74.570312 122.917969 C 77.636719 122.917969 80.453125 123.484375 83.019531 124.609375 C 85.582031 125.730469 87.777344 127.332031 89.605469 129.414062 C 91.4375 131.5 92.773438 133.960938 93.621094 136.796875 L 88.414062 136.796875 C 87.417969 133.996094 85.691406 131.796875 83.230469 130.1875 C 80.777344 128.585938 77.945312 127.78125 74.738281 127.78125 C 71.859375 127.78125 69.308594 128.425781 67.085938 129.71875 C 64.871094 131.011719 63.128906 132.796875 61.859375 135.082031 C 60.585938 137.367188 59.949219 140.007812 59.949219 142.992188 C 59.949219 145.980469 60.585938 148.613281 61.859375 150.898438 C 63.128906 153.183594 64.871094 154.972656 67.085938 156.265625 C 69.308594 157.558594 71.859375 158.203125 74.738281 158.203125 C 78.019531 158.203125 80.9375 157.355469 83.488281 155.660156 C 86.039062 153.964844 87.8125 151.65625 88.808594 148.738281 L 93.957031 148.738281 C 93.175781 151.621094 91.859375 154.132812 89.996094 156.265625 C 88.132812 158.402344 85.882812 160.070312 83.242188 161.273438 C 80.601562 162.464844 77.710938 163.0625 74.570312 163.0625 Z M 74.570312 163.0625 " fill-opacity="1" fill-rule="nonzero"/><path fill="#545454" d="M 102.59375 162.347656 L 102.59375 123.636719 L 107.460938 123.636719 L 107.460938 157.699219 L 126.300781 157.699219 L 126.300781 162.347656 Z M 102.59375 162.347656 " fill-opacity="1" fill-rule="nonzero"/><path fill="#545454" d="M 151.277344 163.0625 C 147.355469 163.0625 143.882812 162.210938 140.851562 160.5 C 137.828125 158.78125 135.46875 156.410156 133.761719 153.386719 C 132.0625 150.363281 131.214844 146.898438 131.214844 142.992188 C 131.214844 139.050781 132.0625 135.578125 133.761719 132.574219 C 135.46875 129.566406 137.828125 127.207031 140.851562 125.496094 C 143.882812 123.777344 147.355469 122.917969 151.277344 122.917969 C 155.226562 122.917969 158.703125 123.777344 161.710938 125.496094 C 164.722656 127.207031 167.085938 129.566406 168.800781 132.574219 C 170.519531 135.578125 171.382812 139.050781 171.382812 142.992188 C 171.382812 146.898438 170.519531 150.363281 168.800781 153.386719 C 167.085938 156.410156 164.722656 158.78125 161.710938 160.5 C 158.703125 162.210938 155.226562 163.0625 151.277344 163.0625 Z M 136.207031 142.992188 C 136.207031 145.980469 136.839844 148.613281 138.117188 150.898438 C 139.386719 153.183594 141.160156 154.972656 143.433594 156.265625 C 145.707031 157.558594 148.320312 158.203125 151.277344 158.203125 C 154.261719 158.203125 156.878906 157.558594 159.128906 156.265625 C 161.386719 154.972656 163.152344 153.183594 164.425781 150.898438 C 165.695312 148.613281 166.332031 145.980469 166.332031 142.992188 C 166.332031 139.96875 165.695312 137.324219 164.425781 135.0625 C 163.152344 132.792969 161.386719 131.011719 159.128906 129.71875 C 156.878906 128.425781 154.261719 127.78125 151.277344 127.78125 C 148.320312 127.78125 145.707031 128.425781 143.433594 129.71875 C 141.160156 131.011719 139.386719 132.792969 138.117188 135.0625 C 136.839844 137.324219 136.207031 139.96875 136.207031 142.992188 Z M 136.207031 142.992188 " fill-opacity="1" fill-rule="nonzero"/><path fill="#545454" d="M 190.917969 162.347656 L 175.46875 123.636719 L 180.671875 123.636719 L 187.101562 139.957031 L 193.195312 155.324219 L 199.230469 139.957031 L 205.714844 123.636719 L 210.863281 123.636719 L 195.460938 162.347656 Z M 190.917969 162.347656 " fill-opacity="1" fill-rule="nonzero"/><path fill="#545454" d="M 217.449219 162.347656 L 217.449219 123.636719 L 240.988281 123.636719 L 240.988281 128.171875 L 222.320312 128.171875 L 222.320312 140.394531 L 239.597656 140.394531 L 239.597656 144.875 L 222.320312 144.875 L 222.320312 157.808594 L 241.59375 157.808594 L 241.59375 162.347656 Z M 217.449219 162.347656 " fill-opacity="1" fill-rule="nonzero"/><path fill="#545454" d="M 250.84375 162.347656 L 250.84375 123.636719 L 265.628906 123.636719 C 268.324219 123.636719 270.664062 124.144531 272.652344 125.160156 C 274.652344 126.175781 276.203125 127.605469 277.308594 129.449219 C 278.421875 131.285156 278.980469 133.5 278.980469 136.082031 C 278.980469 139.214844 278.164062 141.808594 276.535156 143.855469 C 274.914062 145.902344 272.679688 147.269531 269.835938 147.964844 L 279.585938 162.347656 L 273.71875 162.347656 L 264.238281 148.46875 L 255.710938 148.46875 L 255.710938 162.347656 Z M 255.710938 143.820312 L 265.070312 143.820312 C 267.917969 143.820312 270.117188 143.148438 271.667969 141.804688 C 273.214844 140.460938 273.988281 138.554688 273.988281 136.082031 C 273.988281 133.609375 273.214844 131.695312 271.667969 130.332031 C 270.117188 128.96875 267.917969 128.285156 265.070312 128.285156 L 255.710938 128.285156 Z M 255.710938 143.820312 " fill-opacity="1" fill-rule="nonzero"/><path fill="#545454" d="M 46.867188 191.90625 L 51.511719 180.648438 L 52.835938 180.648438 L 57.46875 191.90625 L 55.976562 191.90625 L 54.910156 189.351562 L 49.414062 189.351562 L 48.382812 191.90625 Z M 49.964844 188.03125 L 54.386719 188.03125 L 52.175781 182.621094 Z M 49.964844 188.03125 " fill-opacity="1" fill-rule="nonzero"/><path fill="#545454" d="M 73.367188 192.097656 C 71.996094 192.097656 70.925781 191.675781 70.15625 190.832031 C 69.394531 189.980469 69.011719 188.8125 69.011719 187.324219 L 69.011719 180.648438 L 70.414062 180.648438 L 70.414062 187.222656 C 70.414062 188.375 70.664062 189.246094 71.167969 189.832031 C 71.675781 190.425781 72.40625 190.71875 73.367188 190.71875 C 75.324219 190.71875 76.304688 189.554688 76.304688 187.222656 L 76.304688 180.648438 L 77.730469 180.648438 L 77.730469 187.324219 C 77.730469 188.8125 77.339844 189.980469 76.5625 190.832031 C 75.792969 191.675781 74.726562 192.097656 73.367188 192.097656 Z M 73.367188 192.097656 " fill-opacity="1" fill-rule="nonzero"/><path fill="#545454" d="M 95.636719 192.117188 C 94.804688 192.117188 94.039062 191.972656 93.335938 191.683594 C 92.640625 191.390625 92.039062 190.988281 91.53125 190.472656 C 91.019531 189.949219 90.625 189.335938 90.339844 188.625 C 90.0625 187.90625 89.925781 187.121094 89.925781 186.273438 C 89.925781 185.429688 90.0625 184.652344 90.339844 183.941406 C 90.625 183.226562 91.019531 182.609375 91.53125 182.09375 C 92.039062 181.574219 92.640625 181.164062 93.335938 180.871094 C 94.039062 180.582031 94.804688 180.4375 95.636719 180.4375 C 96.527344 180.4375 97.34375 180.601562 98.082031 180.929688 C 98.828125 181.257812 99.46875 181.722656 100 182.328125 C 100.539062 182.933594 100.933594 183.648438 101.179688 184.480469 L 99.664062 184.480469 C 99.371094 183.660156 98.867188 183.019531 98.148438 182.550781 C 97.4375 182.082031 96.617188 181.847656 95.679688 181.847656 C 94.84375 181.847656 94.101562 182.039062 93.460938 182.417969 C 92.816406 182.792969 92.308594 183.3125 91.933594 183.976562 C 91.566406 184.640625 91.382812 185.40625 91.382812 186.273438 C 91.382812 187.144531 91.566406 187.914062 91.933594 188.578125 C 92.308594 189.246094 92.816406 189.761719 93.460938 190.136719 C 94.101562 190.511719 94.84375 190.695312 95.679688 190.695312 C 96.636719 190.695312 97.488281 190.449219 98.226562 189.957031 C 98.96875 189.464844 99.484375 188.796875 99.777344 187.953125 L 101.269531 187.953125 C 101.042969 188.789062 100.65625 189.515625 100.113281 190.136719 C 99.574219 190.757812 98.917969 191.242188 98.148438 191.59375 C 97.386719 191.941406 96.546875 192.117188 95.636719 192.117188 Z M 95.636719 192.117188 " fill-opacity="1" fill-rule="nonzero"/><path fill="#545454" d="M 116.257812 191.90625 L 116.257812 181.992188 L 112.441406 181.992188 L 112.441406 180.648438 L 121.472656 180.648438 L 121.472656 181.992188 L 117.679688 181.992188 L 117.679688 191.90625 Z M 116.257812 191.90625 " fill-opacity="1" fill-rule="nonzero"/><path fill="#545454" d="M 133.429688 180.648438 L 134.855469 180.648438 L 134.855469 191.90625 L 133.429688 191.90625 Z M 133.429688 180.648438 " fill-opacity="1" fill-rule="nonzero"/><path fill="#545454" d="M 153.011719 192.117188 C 151.875 192.117188 150.863281 191.867188 149.984375 191.367188 C 149.101562 190.871094 148.414062 190.179688 147.921875 189.308594 C 147.425781 188.425781 147.179688 187.414062 147.179688 186.273438 C 147.179688 185.128906 147.425781 184.121094 147.921875 183.246094 C 148.414062 182.375 149.101562 181.6875 149.984375 181.1875 C 150.863281 180.6875 151.875 180.4375 153.011719 180.4375 C 154.164062 180.4375 155.179688 180.6875 156.054688 181.1875 C 156.929688 181.6875 157.613281 182.375 158.105469 183.246094 C 158.605469 184.121094 158.859375 185.128906 158.859375 186.273438 C 158.859375 187.414062 158.605469 188.425781 158.105469 189.308594 C 157.613281 190.179688 156.929688 190.871094 156.054688 191.367188 C 155.179688 191.867188 154.164062 192.117188 153.011719 192.117188 Z M 148.636719 186.273438 C 148.636719 187.144531 148.820312 187.914062 149.1875 188.578125 C 149.5625 189.246094 150.078125 189.761719 150.734375 190.136719 C 151.394531 190.511719 152.152344 190.695312 153.011719 190.695312 C 153.878906 190.695312 154.644531 190.511719 155.300781 190.136719 C 155.960938 189.761719 156.472656 189.246094 156.839844 188.578125 C 157.210938 187.914062 157.402344 187.144531 157.402344 186.273438 C 157.402344 185.398438 157.210938 184.632812 156.839844 183.976562 C 156.472656 183.3125 155.960938 182.792969 155.300781 182.417969 C 154.644531 182.039062 153.878906 181.847656 153.011719 181.847656 C 152.152344 181.847656 151.394531 182.039062 150.734375 182.417969 C 150.078125 182.792969 149.5625 183.3125 149.1875 183.976562 C 148.820312 184.632812 148.636719 185.398438 148.636719 186.273438 Z M 148.636719 186.273438 " fill-opacity="1" fill-rule="nonzero"/><path fill="#545454" d="M 171.171875 191.90625 L 171.171875 180.648438 L 172.515625 180.648438 L 178.742188 189.464844 L 178.742188 180.648438 L 180.136719 180.648438 L 180.136719 191.90625 L 178.8125 191.90625 L 172.574219 183.089844 L 172.574219 191.90625 Z M 171.171875 191.90625 " fill-opacity="1" fill-rule="nonzero"/><path fill="#545454" d="M 200.570312 191.90625 L 200.570312 186.84375 L 194.589844 186.84375 L 194.589844 191.90625 L 193.167969 191.90625 L 193.167969 180.648438 L 194.589844 180.648438 L 194.589844 185.488281 L 200.570312 185.488281 L 200.570312 180.648438 L 201.984375 180.648438 L 201.984375 191.90625 Z M 200.570312 191.90625 " fill-opacity="1" fill-rule="nonzero"/><path fill="#545454" d="M 220.144531 192.117188 C 219.003906 192.117188 217.996094 191.867188 217.113281 191.367188 C 216.230469 190.871094 215.542969 190.179688 215.050781 189.308594 C 214.558594 188.425781 214.308594 187.414062 214.308594 186.273438 C 214.308594 185.128906 214.558594 184.121094 215.050781 183.246094 C 215.542969 182.375 216.230469 181.6875 217.113281 181.1875 C 217.996094 180.6875 219.003906 180.4375 220.144531 180.4375 C 221.292969 180.4375 222.308594 180.6875 223.183594 181.1875 C 224.058594 181.6875 224.746094 182.375 225.238281 183.246094 C 225.738281 184.121094 225.988281 185.128906 225.988281 186.273438 C 225.988281 187.414062 225.738281 188.425781 225.238281 189.308594 C 224.746094 190.179688 224.058594 190.871094 223.183594 191.367188 C 222.308594 191.867188 221.292969 192.117188 220.144531 192.117188 Z M 215.769531 186.273438 C 215.769531 187.144531 215.949219 187.914062 216.320312 188.578125 C 216.691406 189.246094 217.207031 189.761719 217.867188 190.136719 C 218.523438 190.511719 219.28125 190.695312 220.144531 190.695312 C 221.011719 190.695312 221.773438 190.511719 222.433594 190.136719 C 223.089844 189.761719 223.601562 189.246094 223.96875 188.578125 C 224.34375 187.914062 224.53125 187.144531 224.53125 186.273438 C 224.53125 185.398438 224.34375 184.632812 223.96875 183.976562 C 223.601562 183.3125 223.089844 182.792969 222.433594 182.417969 C 221.773438 182.039062 221.011719 181.847656 220.144531 181.847656 C 219.28125 181.847656 218.523438 182.039062 217.867188 182.417969 C 217.207031 182.792969 216.691406 183.3125 216.320312 183.976562 C 215.949219 184.632812 215.769531 185.398438 215.769531 186.273438 Z M 215.769531 186.273438 " fill-opacity="1" fill-rule="nonzero"/><path fill="#545454" d="M 242.53125 192.097656 C 241.164062 192.097656 240.089844 191.675781 239.320312 190.832031 C 238.558594 189.980469 238.179688 188.8125 238.179688 187.324219 L 238.179688 180.648438 L 239.582031 180.648438 L 239.582031 187.222656 C 239.582031 188.375 239.828125 189.246094 240.332031 189.832031 C 240.839844 190.425781 241.570312 190.71875 242.53125 190.71875 C 244.488281 190.71875 245.472656 189.554688 245.472656 187.222656 L 245.472656 180.648438 L 246.894531 180.648438 L 246.894531 187.324219 C 246.894531 188.8125 246.503906 189.980469 245.730469 190.832031 C 244.957031 191.675781 243.890625 192.097656 242.53125 192.097656 Z M 242.53125 192.097656 " fill-opacity="1" fill-rule="nonzero"/><path fill="#545454" d="M 263.554688 192.117188 C 262.648438 192.117188 261.867188 191.964844 261.210938 191.660156 C 260.550781 191.355469 260.042969 190.925781 259.683594 190.371094 C 259.328125 189.820312 259.136719 189.179688 259.125 188.445312 L 260.550781 188.445312 C 260.5625 189.160156 260.847656 189.730469 261.402344 190.148438 C 261.953125 190.558594 262.671875 190.761719 263.554688 190.761719 C 264.347656 190.761719 264.976562 190.613281 265.441406 190.304688 C 265.914062 189.988281 266.148438 189.554688 266.148438 188.992188 C 266.148438 188.472656 265.921875 188.050781 265.476562 187.738281 C 265.027344 187.417969 264.289062 187.140625 263.265625 186.898438 C 261.878906 186.570312 260.867188 186.148438 260.222656 185.632812 C 259.578125 185.113281 259.257812 184.414062 259.257812 183.539062 C 259.257812 182.582031 259.621094 181.828125 260.347656 181.277344 C 261.070312 180.714844 262.050781 180.4375 263.285156 180.4375 C 264.550781 180.4375 265.546875 180.753906 266.28125 181.386719 C 267.023438 182.023438 267.394531 182.886719 267.402344 183.976562 L 266 183.976562 C 265.992188 183.304688 265.742188 182.773438 265.25 182.386719 C 264.761719 181.988281 264.109375 181.792969 263.285156 181.792969 C 262.480469 181.792969 261.84375 181.949219 261.390625 182.261719 C 260.933594 182.574219 260.707031 183 260.707031 183.539062 C 260.707031 184.003906 260.914062 184.394531 261.335938 184.714844 C 261.761719 185.027344 262.523438 185.320312 263.621094 185.589844 C 265.058594 185.941406 266.082031 186.378906 266.699219 186.910156 C 267.308594 187.441406 267.617188 188.121094 267.617188 188.949219 C 267.617188 189.921875 267.246094 190.695312 266.507812 191.265625 C 265.773438 191.835938 264.789062 192.117188 263.554688 192.117188 Z M 263.554688 192.117188 " fill-opacity="1" fill-rule="nonzero"/><path fill="#545454" d="M 279.972656 191.90625 L 279.972656 180.648438 L 286.828125 180.648438 L 286.828125 181.96875 L 281.398438 181.96875 L 281.398438 185.519531 L 286.421875 185.519531 L 286.421875 186.820312 L 281.398438 186.820312 L 281.398438 190.582031 L 287.007812 190.582031 L 287.007812 191.90625 Z M 279.972656 191.90625 " fill-opacity="1" fill-rule="nonzero"/><g clip-path="url(#ed4e1249a9)"><path fill="#3aaa35" d="M 111.191406 70.835938 C 108.867188 70.835938 106.980469 72.722656 106.980469 75.046875 L 106.980469 86.546875 L 118.480469 86.546875 C 120.808594 86.546875 122.691406 84.660156 122.691406 82.335938 C 122.691406 80.011719 120.808594 78.125 118.480469 78.125 L 115.402344 78.125 L 115.402344 75.046875 C 115.402344 72.722656 113.519531 70.835938 111.191406 70.835938 " fill-opacity="1" fill-rule="nonzero"/></g><g clip-path="url(#23bd4fa35d)"><path stroke-linecap="butt" transform="matrix(0.0102069, 0, 0, -0.0102069, 86.00353, 107.524755)" fill="none" stroke-linejoin="round" d="M 2467.740248 3594.525811 C 2240.028785 3594.525811 2055.180657 3409.677682 2055.180657 3181.966219 L 2055.180657 2055.272864 L 3181.874012 2055.272864 C 3409.968184 2055.272864 3594.433604 2240.120992 3594.433604 2467.832455 C 3594.433604 2695.543918 3409.968184 2880.392047 3181.874012 2880.392047 L 2880.29984 2880.392047 L 2880.29984 3181.966219 C 2880.29984 3409.677682 2695.834419 3594.525811 2467.740248 3594.525811 Z M 2467.740248 3594.525811 " stroke="#3aaa35" stroke-width="159.479004" stroke-opacity="1" stroke-miterlimit="10"/></g><g clip-path="url(#d50a7605c0)"><path fill="#3aaa35" d="M 98.316406 106.710938 C 100.640625 106.710938 102.527344 104.824219 102.527344 102.5 L 102.527344 91 L 91.027344 91 C 88.703125 91 86.816406 92.886719 86.816406 95.210938 C 86.816406 97.535156 88.703125 99.421875 91.027344 99.421875 L 94.105469 99.421875 L 94.105469 102.5 C 94.105469 104.824219 95.992188 106.710938 98.316406 106.710938 " fill-opacity="1" fill-rule="nonzero"/></g><g clip-path="url(#3bb91f650e)"><path stroke-linecap="butt" transform="matrix(0.0102069, 0, 0, -0.0102069, 86.00353, 107.524755)" fill="none" stroke-linejoin="round" d="M 1206.333557 79.732408 C 1434.045019 79.732408 1618.893148 264.580537 1618.893148 492.291999 L 1618.893148 1618.985355 L 492.199792 1618.985355 C 264.48833 1618.985355 79.640201 1434.137226 79.640201 1206.425764 C 79.640201 978.714301 264.48833 793.866172 492.199792 793.866172 L 793.773965 793.866172 L 793.773965 492.291999 C 793.773965 264.580537 978.622094 79.732408 1206.333557 79.732408 Z M 1206.333557 79.732408 " stroke="#3aaa35" stroke-width="159.479004" stroke-opacity="1" stroke-miterlimit="10"/></g><path fill="#3aaa35" d="M 122.691406 95.210938 C 122.691406 92.886719 120.808594 91 118.480469 91 L 106.980469 91 L 106.980469 102.5 C 106.980469 104.824219 108.867188 106.710938 111.191406 106.710938 C 113.519531 106.710938 115.402344 104.824219 115.402344 102.5 L 115.402344 99.421875 L 118.480469 99.421875 C 120.808594 99.421875 122.691406 97.535156 122.691406 95.210938 " fill-opacity="1" fill-rule="nonzero"/><g clip-path="url(#1a541948e7)"><path stroke-linecap="butt" transform="matrix(0.0102069, 0, 0, -0.0102069, 86.00353, 107.524755)" fill="none" stroke-linejoin="round" d="M 3594.433604 1206.425764 C 3594.433604 1434.137226 3409.968184 1618.985355 3181.874012 1618.985355 L 2055.180657 1618.985355 L 2055.180657 492.291999 C 2055.180657 264.580537 2240.028785 79.732408 2467.740248 79.732408 C 2695.834419 79.732408 2880.29984 264.580537 2880.29984 492.291999 L 2880.29984 793.866172 L 3181.874012 793.866172 C 3409.968184 793.866172 3594.433604 978.714301 3594.433604 1206.425764 Z M 3594.433604 1206.425764 " stroke="#3aaa35" stroke-width="159.479004" stroke-opacity="1" stroke-miterlimit="10"/></g><g clip-path="url(#5d2c575c9a)"><path fill="#3aaa35" d="M 86.816406 82.335938 C 86.816406 84.660156 88.703125 86.546875 91.027344 86.546875 L 102.527344 86.546875 L 102.527344 75.046875 C 102.527344 72.722656 100.640625 70.835938 98.316406 70.835938 C 95.992188 70.835938 94.105469 72.722656 94.105469 75.046875 L 94.105469 78.125 L 91.027344 78.125 C 88.703125 78.125 86.816406 80.011719 86.816406 82.335938 " fill-opacity="1" fill-rule="nonzero"/></g><g clip-path="url(#c4d976fbeb)"><path stroke-linecap="butt" transform="matrix(0.0102069, 0, 0, -0.0102069, 86.00353, 107.524755)" fill="none" stroke-linejoin="round" d="M 79.640201 2467.832455 C 79.640201 2240.120992 264.48833 2055.272864 492.199792 2055.272864 L 1618.893148 2055.272864 L 1618.893148 3181.966219 C 1618.893148 3409.677682 1434.045019 3594.525811 1206.333557 3594.525811 C 978.622094 3594.525811 793.773965 3409.677682 793.773965 3181.966219 L 793.773965 2880.392047 L 492.199792 2880.392047 C 264.48833 2880.392047 79.640201 2695.543918 79.640201 2467.832455 Z M 79.640201 2467.832455 " stroke="#3aaa35" stroke-width="159.479004" stroke-opacity="1" stroke-miterlimit="10"/></g><g clip-path="url(#fef9b6b003)"><path fill="#3aaa35" d="M 230.523438 70.835938 C 228.199219 70.835938 226.3125 72.722656 226.3125 75.046875 L 226.3125 86.546875 L 237.8125 86.546875 C 240.140625 86.546875 242.023438 84.660156 242.023438 82.335938 C 242.023438 80.011719 240.140625 78.125 237.8125 78.125 L 234.734375 78.125 L 234.734375 75.046875 C 234.734375 72.722656 232.851562 70.835938 230.523438 70.835938 " fill-opacity="1" fill-rule="nonzero"/></g><g clip-path="url(#5ba36497e1)"><path stroke-linecap="butt" transform="matrix(0.0102069, 0, 0, -0.0102069, 205.335679, 107.524755)" fill="none" stroke-linejoin="round" d="M 2467.728673 3594.525811 C 2240.01721 3594.525811 2055.169081 3409.677682 2055.169081 3181.966219 L 2055.169081 2055.272864 L 3181.862437 2055.272864 C 3409.956608 2055.272864 3594.422029 2240.120992 3594.422029 2467.832455 C 3594.422029 2695.543918 3409.956608 2880.392047 3181.862437 2880.392047 L 2880.288264 2880.392047 L 2880.288264 3181.966219 C 2880.288264 3409.677682 2695.822844 3594.525811 2467.728673 3594.525811 Z M 2467.728673 3594.525811 " stroke="#3aaa35" stroke-width="159.479004" stroke-opacity="1" stroke-miterlimit="10"/></g><path fill="#3aaa35" d="M 217.648438 106.710938 C 219.972656 106.710938 221.859375 104.824219 221.859375 102.5 L 221.859375 91 L 210.359375 91 C 208.035156 91 206.148438 92.886719 206.148438 95.210938 C 206.148438 97.535156 208.035156 99.421875 210.359375 99.421875 L 213.4375 99.421875 L 213.4375 102.5 C 213.4375 104.824219 215.324219 106.710938 217.648438 106.710938 " fill-opacity="1" fill-rule="nonzero"/><g clip-path="url(#fc2d9474dc)"><path stroke-linecap="butt" transform="matrix(0.0102069, 0, 0, -0.0102069, 205.335679, 107.524755)" fill="none" stroke-linejoin="round" d="M 1206.321981 79.732408 C 1434.033444 79.732408 1618.881573 264.580537 1618.881573 492.291999 L 1618.881573 1618.985355 L 492.188217 1618.985355 C 264.476754 1618.985355 79.628626 1434.137226 79.628626 1206.425764 C 79.628626 978.714301 264.476754 793.866172 492.188217 793.866172 L 793.76239 793.866172 L 793.76239 492.291999 C 793.76239 264.580537 978.610518 79.732408 1206.321981 79.732408 Z M 1206.321981 79.732408 " stroke="#3aaa35" stroke-width="159.479004" stroke-opacity="1" stroke-miterlimit="10"/></g><g clip-path="url(#4ccf1766e6)"><path fill="#3aaa35" d="M 242.023438 95.210938 C 242.023438 92.886719 240.140625 91 237.8125 91 L 226.3125 91 L 226.3125 102.5 C 226.3125 104.824219 228.199219 106.710938 230.523438 106.710938 C 232.851562 106.710938 234.734375 104.824219 234.734375 102.5 L 234.734375 99.421875 L 237.8125 99.421875 C 240.140625 99.421875 242.023438 97.535156 242.023438 95.210938 " fill-opacity="1" fill-rule="nonzero"/></g><g clip-path="url(#096ebc1386)"><path stroke-linecap="butt" transform="matrix(0.0102069, 0, 0, -0.0102069, 205.335679, 107.524755)" fill="none" stroke-linejoin="round" d="M 3594.422029 1206.425764 C 3594.422029 1434.137226 3409.956608 1618.985355 3181.862437 1618.985355 L 2055.169081 1618.985355 L 2055.169081 492.291999 C 2055.169081 264.580537 2240.01721 79.732408 2467.728673 79.732408 C 2695.822844 79.732408 2880.288264 264.580537 2880.288264 492.291999 L 2880.288264 793.866172 L 3181.862437 793.866172 C 3409.956608 793.866172 3594.422029 978.714301 3594.422029 1206.425764 Z M 3594.422029 1206.425764 " stroke="#3aaa35" stroke-width="159.479004" stroke-opacity="1" stroke-miterlimit="10"/></g><g clip-path="url(#1a36300122)"><path fill="#3aaa35" d="M 206.148438 82.335938 C 206.148438 84.660156 208.035156 86.546875 210.359375 86.546875 L 221.859375 86.546875 L 221.859375 75.046875 C 221.859375 72.722656 219.972656 70.835938 217.648438 70.835938 C 215.324219 70.835938 213.4375 72.722656 213.4375 75.046875 L 213.4375 78.125 L 210.359375 78.125 C 208.035156 78.125 206.148438 80.011719 206.148438 82.335938 " fill-opacity="1" fill-rule="nonzero"/></g><g clip-path="url(#78a7c2c0a2)"><path stroke-linecap="butt" transform="matrix(0.0102069, 0, 0, -0.0102069, 205.335679, 107.524755)" fill="none" stroke-linejoin="round" d="M 79.628626 2467.832455 C 79.628626 2240.120992 264.476754 2055.272864 492.188217 2055.272864 L 1618.881573 2055.272864 L 1618.881573 3181.966219 C 1618.881573 3409.677682 1434.033444 3594.525811 1206.321981 3594.525811 C 978.610518 3594.525811 793.76239 3409.677682 793.76239 3181.966219 L 793.76239 2880.392047 L 492.188217 2880.392047 C 264.476754 2880.392047 79.628626 2695.543918 79.628626 2467.832455 Z M 79.628626 2467.832455 " stroke="#3aaa35" stroke-width="159.479004" stroke-opacity="1" stroke-miterlimit="10"/></g></svg>